<?xml version="1.0" standalone="no"?><!DOCTYPE svg PUBLIC "-//W3C//DTD SVG 1.1//EN" "http://www.w3.org/Graphics/SVG/1.1/DTD/svg11.dtd" ><svg xmlns="http://www.w3.org/2000/svg"><metadata></metadata><defs><font id="fonteditor" horiz-adv-x="256"><font-face font-family="e¹kcSOiwNf{OS" font-weight="400" font-stretch="normal" units-per-em="256" panose-1="2 0 0 0 0 0 0 0 0 0" ascent="221" descent="-59" x-height="0" bbox="-2 -39 257 217" underline-thickness="0" underline-position="0" unicode-range="U+0022-ff1a" /><missing-glyph horiz-adv-x="256"  /><glyph glyph-name="quotedbl" unicode="&quot;" d="M33 105 Q32 97 29 96 Q27 95 26 102 Q24 116 19 158 Q17 167 17 171 Q27 173 33 170 Q37 168 38 162 Q37 137 33 105 ZM80 105 Q79 97 77 96 Q75 95 74 102 Q72 116 67 158 Q65 167 65 171 Q76 173 80 170 Q86 168 85 162 Q84 137 80 105 Z" /><glyph glyph-name="numbersign" unicode="#" d="M42 6 Q41 8 37 15 Q33 22 32 24 Q38 37 41 52 Q35 51 29 51 Q24 49 21 53 Q15 59 12 65 Q16 64 30 65 Q39 65 44 65 Q47 83 54 115 Q42 113 29 113 Q24 111 21 115 Q18 118 13 124 Q14 123 12 126 Q27 125 56 128 Q56 131 58 138 Q59 146 60 150 Q63 166 63 181 Q74 174 84 171 Q78 159 75 146 Q74 141 72 130 Q75 130 83 131 Q104 133 117 134 Q119 142 120 149 Q123 164 122 181 Q132 173 144 171 Q136 155 135 146 Q134 142 132 135 Q134 135 138 136 Q142 136 144 136 Q148 136 151 133 Q153 131 158 121 Q159 119 158 118 Q157 116 155 117 Q151 118 142 118 Q134 119 129 119 Q127 109 122 84 Q121 76 120 72 Q124 72 132 73 Q140 73 144 74 Q148 74 151 71 Q153 69 158 59 Q159 57 158 56 Q157 54 155 55 Q137 57 118 57 Q116 48 114 33 Q113 29 113 27 Q109 9 108 6 Q106 2 102 6 Q94 18 91 24 Q92 26 93 30 Q99 42 102 57 Q95 57 80 56 Q66 55 58 54 Q57 49 55 40 Q54 30 53 27 Q52 16 48 7 Q47 4 46 4 Q44 4 42 6 ZM114 119 Q98 119 70 117 Q69 112 67 102 Q62 78 60 67 Q64 67 68 67 Q74 68 86 69 Q98 71 104 71 Q106 79 111 104 Q113 114 114 119 Z" /><glyph glyph-name="comma" unicode="," d="M22 -15 L21 -11 Q39 -5 38 8 Q36 6 30 6 Q19 8 19 19 Q20 29 33 30 Q48 29 47 12 Q48 -10 22 -15 Z" /><glyph glyph-name="hyphen" unicode="-" d="M18 97 L152 97 Q152 92 152 86 L18 86 Q18 90 18 97 Z" /><glyph glyph-name="period" unicode="." d="M33 31 Q46 30 47 18 Q47 6 33 6 Q19 7 18 18 Q19 30 33 31 Z" /><glyph glyph-name="slash" unicode="/" d="M105 173 L24 6 Q17 6 12 6 L92 173 Q100 172 105 173 Z" /><glyph glyph-name="zero" unicode="0" d="M116 89 Q116 4 62 6 Q12 10 9 89 Q12 171 62 173 Q115 170 116 89 ZM97 89 Q98 161 62 160 Q27 162 28 89 Q29 22 62 19 Q99 15 97 89 Z" /><glyph glyph-name="one" unicode="1" d="M68 9 Q54 18 49 24 Q57 28 54 129 Q54 140 54 146 Q44 136 37 126 Q36 126 36 127 Q28 133 22 140 Q39 149 53 162 Q52 170 50 174 Q63 169 78 169 Q74 160 74 143 Q74 129 75 88 Q75 47 75 32 Q75 16 75 10 Q74 5 68 9 Z" /><glyph glyph-name="two" unicode="2" d="M21 8 Q18 22 7 33 Q15 38 22 42 Q86 89 87 124 Q88 160 60 158 Q35 155 32 118 Q21 120 12 127 Q20 171 62 173 Q104 170 107 127 Q115 95 35 28 Q66 33 100 35 Q106 37 108 32 Q109 31 112 27 Q114 23 115 21 Q117 16 112 16 Q60 18 21 8 Z" /><glyph glyph-name="three" unicode="3" d="M40 77 Q39 92 31 104 Q82 111 81 140 Q80 159 58 158 Q36 156 31 129 Q18 134 10 140 Q27 174 64 172 Q97 171 100 141 Q101 110 73 100 Q109 100 112 59 Q108 6 46 6 Q28 7 14 17 Q4 28 11 48 Q27 28 45 26 Q87 22 92 56 Q94 85 61 85 Q49 84 40 77 Z" /><glyph glyph-name="four" unicode="4" d="M22 45 Q19 57 8 69 Q68 140 72 173 Q85 168 97 168 Q92 159 92 142 Q91 135 92 103 Q92 83 92 73 Q95 74 97 74 Q101 74 104 71 Q106 69 111 59 Q112 57 112 56 Q111 55 108 55 Q106 55 101 55 Q96 54 93 54 Q93 42 93 30 Q93 15 93 9 Q92 4 86 8 Q77 14 67 23 Q72 30 73 53 Q48 50 22 45 ZM30 64 Q50 68 73 71 Q74 79 73 101 Q73 116 73 125 Q56 105 33 69 Q31 66 30 64 Z" /><glyph glyph-name="five" unicode="5" d="M42 165 Q44 165 50 167 Q74 171 91 173 Q96 175 100 170 Q100 169 102 167 Q105 162 106 159 Q107 156 107 155 Q106 154 103 154 Q75 157 51 150 Q50 151 48 153 Q45 155 44 156 Q41 139 41 111 Q51 114 63 112 Q105 108 109 67 Q106 5 42 6 Q26 5 14 17 Q5 29 11 47 Q27 27 45 26 Q87 25 89 62 Q89 94 59 96 Q49 97 30 82 Q29 81 28 80 Q20 92 11 101 Q18 106 21 116 Q25 149 19 172 Q27 170 38 167 Q41 165 42 165 Z" /><glyph glyph-name="six" unicode="6" d="M91 172 Q95 163 105 152 Q41 150 33 90 Q45 105 70 105 Q112 100 115 57 Q112 8 65 6 Q12 6 11 73 Q14 158 91 172 ZM95 56 Q94 89 66 90 Q44 91 33 70 Q27 21 64 20 Q94 22 95 56 Z" /><glyph glyph-name="nine" unicode="9" d="M29 122 Q31 89 59 86 Q79 86 93 103 Q93 104 93 105 Q94 107 94 112 Q93 159 59 161 Q30 159 29 122 ZM65 13 Q35 -1 19 16 Q32 19 50 27 Q88 46 92 87 Q79 73 55 74 Q13 77 10 121 Q14 170 60 173 Q112 171 114 106 Q112 39 65 13 Z" /><glyph glyph-name="colon" unicode=":" d="M33 31 Q46 30 47 18 Q47 6 33 6 Q19 7 18 18 Q19 30 33 31 ZM33 114 Q46 113 47 102 Q46 89 33 88 Q18 88 18 102 Q19 113 33 114 Z" /><glyph glyph-name="semicolon" unicode=";" d="M22 -15 L21 -11 Q39 -5 38 8 Q36 6 30 6 Q19 8 19 19 Q20 29 33 30 Q48 29 47 12 Q48 -10 22 -15 ZM34 114 Q47 113 48 102 Q47 89 34 88 Q19 88 19 102 Q20 113 34 114 Z" /><glyph glyph-name="less" unicode="&lt;" d="M18 97 L152 153 Q151 146 152 141 L36 91 L152 42 Q151 39 152 35 Q152 31 152 29 L18 86 Q18 91 18 97 Z" /><glyph glyph-name="equal" unicode="=" d="M18 126 L152 126 Q151 120 152 115 L18 115 Q19 117 18 122 Q18 125 18 126 ZM18 80 L152 80 Q152 75 152 69 L18 69 Q20 75 18 80 Z" /><glyph glyph-name="greater" unicode="&gt;" d="M152 86 L18 29 Q20 37 18 42 L135 91 L18 141 Q20 146 18 153 L152 97 Q151 91 152 86 Z" /><glyph glyph-name="A" unicode="a" d="M115 60 Q93 60 55 58 Q53 53 49 43 Q47 36 41 23 Q36 6 9 10 Q19 24 27 44 Q48 90 73 173 Q82 170 95 172 Q105 146 129 83 Q140 52 146 37 Q146 36 151 25 Q156 15 156 14 Q157 10 151 11 Q137 14 129 18 Q128 26 124 35 Q121 45 115 60 ZM111 72 Q110 74 109 78 Q96 117 84 145 Q82 138 76 123 Q64 85 59 70 Q77 70 111 72 Z" /><glyph glyph-name="C" unicode="c" d="M151 139 Q136 157 107 158 Q38 156 33 91 Q33 26 105 21 Q149 23 167 65 Q181 48 173 32 Q153 5 103 6 Q19 11 13 87 Q19 168 105 173 Q143 174 169 157 Q158 150 151 139 Z" /><glyph glyph-name="D" unicode="d" d="M48 155 Q48 133 48 101 Q47 64 47 34 Q163 29 162 101 Q168 175 48 155 ZM180 100 Q181 14 47 19 Q47 17 47 11 Q46 8 45 7 Q43 7 41 9 Q29 21 24 29 Q30 58 27 131 Q27 163 20 177 Q25 175 47 169 Q184 189 180 100 Z" /><glyph glyph-name="I" unicode="i" d="M45 9 Q33 17 25 24 Q31 33 32 58 Q33 80 30 144 Q30 160 26 172 Q41 167 55 167 Q50 157 50 140 Q51 77 52 32 Q52 12 51 10 Q51 8 49 7 Q48 7 45 9 Z" /><glyph glyph-name="L" unicode="l" d="M33 7 Q29 17 20 26 Q28 35 29 54 Q31 70 29 129 Q28 161 21 172 Q32 169 49 166 Q52 165 54 165 Q48 155 49 136 Q49 99 49 80 Q49 58 50 27 Q52 27 58 28 Q109 37 124 36 Q128 36 131 33 Q135 27 138 21 Q140 19 139 17 Q138 16 135 17 Q83 19 33 7 Z" /><glyph glyph-name="P" unicode="p" d="M49 154 Q49 122 49 90 Q116 89 115 124 Q118 166 49 154 ZM49 77 Q49 66 49 50 Q48 25 49 11 Q48 4 41 8 Q40 10 37 13 Q27 23 26 27 Q31 47 29 129 Q28 161 22 175 Q25 174 38 170 Q45 168 49 167 Q94 175 115 164 Q133 152 135 129 Q134 96 109 84 Q82 74 49 77 Z" /><glyph glyph-name="S" unicode="s" d="M69 158 Q38 162 35 131 Q35 108 69 100 Q115 90 114 52 Q110 5 59 6 Q32 6 19 19 Q9 31 14 52 Q33 28 59 26 Q89 25 94 50 Q95 73 69 80 Q13 94 16 128 Q14 173 69 173 Q96 171 112 151 Q101 146 93 138 Q84 154 69 158 Z" /><glyph glyph-name="W" unicode="w" d="M40 172 Q44 153 47 143 Q58 112 79 62 Q82 55 83 51 Q85 58 89 73 Q106 129 116 169 Q130 165 147 168 Q155 130 175 62 Q177 55 178 52 Q180 58 185 70 Q201 109 212 143 Q218 158 218 172 Q230 160 244 154 Q234 145 230 132 Q205 64 182 8 Q177 2 171 8 Q155 58 132 147 Q99 37 87 8 Q82 2 77 9 Q71 25 60 54 Q43 99 31 130 Q27 142 18 151 Q23 155 33 165 Q37 169 40 172 Z" /><glyph glyph-name="bracketleft" unicode="[" d="M31 -29 Q30 -25 25 -18 Q24 -17 23 -16 Q29 -25 28 100 Q28 131 28 149 Q28 153 28 160 Q27 187 24 195 Q34 190 45 186 Q53 191 62 192 Q70 193 74 181 Q75 176 72 176 Q58 179 44 175 Q44 172 44 165 Q42 54 43 -13 Q52 -10 63 -9 Q69 -9 74 -20 Q75 -22 75 -23 Q74 -24 72 -24 Q51 -22 31 -29 Z" /><glyph glyph-name="backslash" unicode="\" d="M25 173 L105 6 Q98 8 91 6 L12 173 Q19 172 25 173 Z" /><glyph glyph-name="bracketright" unicode="]" d="M51 -11 Q52 -12 53 -15 Q54 -17 56 -21 Q50 -22 40 -24 Q27 -26 19 -27 Q14 -29 11 -26 Q10 -25 7 -23 Q4 -20 2 -16 Q18 -14 34 -10 Q34 63 34 104 Q34 149 33 181 Q24 176 14 174 Q9 176 3 184 Q2 186 2 186 Q3 187 4 187 Q20 188 33 195 Q41 188 55 184 Q55 183 54 182 Q51 176 51 167 Q50 63 51 -11 Z" /><glyph glyph-name="underscore" unicode="_" d="M130 -22 L-2 -22 Q-1 -16 -2 -9 L130 -9 Q130 -17 130 -22 Z" /><glyph glyph-name="a" unicode="a" d="M26 55 Q25 30 38 27 Q55 28 63 53 Q63 78 62 93 Q30 87 26 55 ZM61 107 Q60 109 59 112 Q58 114 58 115 Q73 110 86 110 Q82 101 82 84 Q82 52 83 27 Q84 23 84 17 Q85 12 85 8 Q85 4 78 6 Q70 10 62 14 Q66 17 65 29 Q53 8 33 9 Q8 10 9 48 Q10 99 61 107 Z" /><glyph glyph-name="b" unicode="b" d="M38 16 Q38 13 38 9 Q37 5 36 5 Q34 4 31 6 Q27 11 20 19 Q16 24 15 26 Q20 53 19 138 Q18 173 13 182 Q23 178 39 177 Q41 177 43 177 Q39 169 39 159 Q38 133 39 106 Q112 131 117 66 Q116 14 38 16 ZM39 90 Q39 82 39 61 Q38 39 38 30 Q97 29 98 65 Q95 114 39 90 Z" /><glyph glyph-name="c" unicode="c" d="M88 86 Q78 101 62 101 Q29 98 30 58 Q33 26 60 23 Q81 23 92 47 Q105 37 98 22 Q87 6 59 6 Q14 11 12 59 Q15 110 61 113 Q84 114 100 103 Q91 95 88 86 Z" /><glyph glyph-name="d" unicode="d" d="M30 61 Q29 36 44 29 Q75 22 89 54 Q89 61 89 71 Q90 86 89 99 Q38 101 30 61 ZM89 112 Q89 141 88 163 Q88 171 85 180 Q84 182 84 182 Q90 180 104 179 Q109 178 111 178 Q108 172 109 91 Q109 86 109 85 Q109 54 110 27 Q110 24 110 19 Q111 12 111 8 Q111 4 105 7 Q96 10 88 15 Q91 20 91 31 Q71 4 39 10 Q12 18 11 55 Q14 114 89 112 Z" /><glyph glyph-name="e" unicode="e" d="M94 59 Q79 59 44 57 Q36 56 32 56 Q36 25 64 24 Q84 25 95 47 Q109 39 100 21 Q86 5 59 6 Q16 10 12 59 Q12 111 59 114 Q100 112 104 70 Q105 59 94 59 ZM33 71 Q59 71 85 74 Q81 101 58 102 Q33 99 33 71 Z" /><glyph glyph-name="f" unicode="f" d="M44 126 L44 115 Q54 117 61 118 Q67 120 69 114 Q72 110 74 105 Q75 102 75 102 Q74 101 72 101 Q58 103 45 101 Q45 50 46 32 Q46 12 45 10 Q45 8 43 7 Q42 7 39 9 Q29 16 22 24 Q26 32 26 99 Q20 97 15 97 Q11 98 5 108 Q4 110 4 110 Q4 111 5 111 Q8 112 15 112 Q22 113 25 113 Q25 120 25 126 Q23 181 70 181 Q87 181 105 171 Q104 170 103 168 Q95 160 93 154 Q85 168 71 169 Q43 171 44 126 Z" /><glyph glyph-name="g" unicode="g" d="M30 58 Q29 35 44 28 Q75 21 89 50 Q89 72 89 93 Q37 95 30 58 ZM88 106 Q88 109 86 114 Q86 113 85 116 Q97 112 111 112 Q109 107 109 85 Q109 81 109 80 Q109 60 109 28 Q111 -18 67 -27 Q44 -29 28 -26 Q4 -19 10 4 Q37 -16 65 -10 Q92 -2 90 29 Q70 5 40 12 Q12 20 11 53 Q14 107 88 106 Z" /><glyph glyph-name="h" unicode="h" d="M37 9 Q28 14 17 24 Q22 33 23 62 Q24 87 22 154 Q22 171 18 182 Q31 177 47 177 Q42 168 42 151 Q42 127 43 107 Q59 116 80 115 Q111 114 111 84 Q111 76 111 59 Q112 41 112 32 Q113 22 113 10 Q114 8 112 7 Q110 7 107 9 Q94 16 88 23 Q93 31 92 82 Q90 100 75 101 Q57 102 43 87 Q43 43 44 32 Q44 12 43 10 Q43 8 41 7 Q40 7 37 9 Z" /><glyph glyph-name="i" unicode="i" d="M37 8 Q23 18 18 24 Q23 33 24 45 Q25 56 24 90 Q24 106 20 118 Q31 114 48 112 Q44 104 44 86 Q44 59 44 31 Q44 15 44 10 Q43 5 37 8 ZM19 161 Q20 172 33 173 Q45 172 46 161 Q45 149 33 148 Q20 149 19 161 Z" /><glyph glyph-name="k" unicode="k" d="M36 8 Q20 19 17 23 Q22 32 23 61 Q24 87 22 154 Q22 171 18 182 Q31 177 46 177 Q42 168 42 151 Q42 104 43 71 Q94 104 100 119 Q106 108 118 100 Q113 99 102 91 Q97 88 94 86 Q75 74 59 67 Q63 63 71 54 Q77 48 79 46 Q91 35 101 29 Q108 26 119 18 Q122 17 123 16 Q127 14 127 12 Q126 10 122 10 Q119 10 114 10 Q89 9 86 13 Q83 15 76 24 Q73 29 71 31 Q68 36 60 46 Q52 57 49 61 Q46 61 43 59 Q43 41 43 31 Q43 15 43 10 Q42 5 36 8 Z" /><glyph glyph-name="l" unicode="l" d="M34 8 Q20 18 14 23 Q19 32 20 61 Q21 87 19 155 Q19 171 15 183 Q26 179 44 177 Q39 170 39 151 Q40 71 41 31 Q41 12 40 10 Q40 7 39 7 Q37 6 34 8 Z" /><glyph glyph-name="m" unicode="m" d="M36 9 Q27 14 16 24 Q26 33 22 91 Q22 107 18 117 Q31 112 47 112 Q44 106 43 100 Q56 114 74 113 Q100 114 110 96 Q124 114 143 114 Q182 113 181 70 Q181 51 181 31 Q181 21 181 10 Q180 5 175 8 Q164 15 155 24 Q164 29 163 70 Q163 100 142 100 Q124 99 114 77 Q114 54 114 30 Q114 15 114 9 Q113 4 107 8 Q93 17 88 23 Q96 23 94 75 Q93 99 71 99 Q56 99 42 83 Q42 46 43 32 Q43 12 42 10 Q42 8 40 7 Q39 7 36 9 Z" /><glyph glyph-name="n" unicode="n" d="M36 9 Q30 12 16 24 Q26 33 22 91 Q22 107 18 117 Q31 112 47 112 Q44 106 43 100 Q56 113 72 113 Q113 115 112 76 Q113 60 113 32 Q113 12 112 10 Q112 8 110 7 Q109 7 106 9 Q98 13 87 24 Q91 27 92 36 Q93 42 93 76 Q92 100 70 99 Q52 97 42 80 Q42 45 43 32 Q43 12 42 10 Q42 8 40 7 Q39 7 36 9 Z" /><glyph glyph-name="o" unicode="o" d="M11 59 Q15 109 67 114 Q117 110 121 60 Q117 11 68 7 Q15 11 11 59 ZM29 67 Q32 25 71 21 Q101 25 104 55 Q101 96 63 99 Q33 95 29 67 Z" /><glyph glyph-name="p" unicode="p" d="M41 99 Q40 77 40 23 Q99 19 97 65 Q100 110 41 99 ZM40 9 Q40 -6 41 -27 Q38 -32 33 -29 Q21 -17 18 -10 Q23 8 20 75 Q20 103 13 119 Q18 117 40 111 Q115 124 116 62 Q113 5 40 9 Z" /><glyph glyph-name="q" unicode="q" d="M30 58 Q30 33 47 26 Q78 20 90 48 Q90 76 89 94 Q36 100 30 58 ZM89 106 Q89 110 86 116 Q100 112 112 112 Q109 106 109 80 Q109 25 110 -6 Q111 -13 110 -25 Q110 -27 110 -27 Q109 -32 104 -29 Q90 -19 83 -13 Q92 2 90 25 Q71 2 40 10 Q13 18 12 53 Q15 113 89 106 Z" /><glyph glyph-name="r" unicode="r" d="M36 9 Q23 17 17 24 Q22 33 23 44 Q24 53 23 87 Q23 103 19 115 Q30 111 47 109 Q44 103 43 94 Q58 111 88 112 Q84 102 83 90 Q55 90 43 75 Q43 52 43 32 Q43 16 43 10 Q42 5 36 9 Z" /><glyph glyph-name="s" unicode="s" d="M43 101 Q28 102 27 87 Q26 74 43 70 Q69 61 69 37 Q67 8 36 7 Q21 7 13 15 Q6 23 10 39 Q19 23 35 24 Q48 25 50 37 Q50 48 40 52 Q6 63 8 85 Q9 113 42 114 Q56 113 69 100 Q59 96 54 88 Q51 98 43 101 Z" /><glyph glyph-name="t" unicode="t" d="M24 107 L24 110 Q24 126 20 138 Q31 134 49 132 Q45 123 44 110 Q45 110 47 110 Q53 112 60 112 Q64 113 66 110 Q66 110 67 109 Q67 109 68 107 Q72 102 72 100 Q73 96 72 95 Q72 94 70 95 Q56 97 44 95 Q44 58 44 33 Q48 15 73 30 Q76 5 42 6 Q25 8 24 29 Q25 45 25 92 Q24 92 22 92 Q20 91 19 91 Q17 92 8 103 Q7 105 7 105 Q8 106 9 106 Q11 106 16 106 Q21 107 24 107 Z" /><glyph glyph-name="u" unicode="u" d="M87 34 Q92 41 91 75 Q90 87 90 95 Q90 107 88 114 Q91 113 104 111 Q110 110 112 110 Q110 102 110 93 Q110 59 110 47 Q110 42 110 31 Q110 11 109 9 Q109 7 107 6 Q106 6 103 8 Q101 9 95 14 Q92 16 91 17 Q79 11 63 10 Q34 11 27 29 Q23 37 22 47 Q21 57 22 94 Q22 106 19 113 Q22 112 36 110 Q42 109 44 109 Q42 105 42 92 Q42 87 42 78 Q40 38 45 34 Q49 24 66 24 Q80 24 87 34 Z" /><glyph glyph-name="v" unicode="v" d="M36 115 Q38 97 42 86 Q51 65 62 46 Q71 60 82 86 Q87 96 88 115 Q101 103 113 98 Q105 89 98 76 Q93 66 86 50 Q72 19 67 11 Q62 5 57 11 Q52 20 42 42 Q33 62 27 73 Q22 85 13 97 Q24 103 36 115 Z" /><glyph glyph-name="w" unicode="w" d="M37 117 Q39 99 43 88 Q51 68 60 47 Q66 62 79 105 Q80 109 81 112 Q95 108 112 111 Q119 79 132 48 Q136 56 143 71 Q147 80 149 85 Q153 95 155 114 Q166 105 181 98 Q173 88 167 75 Q153 47 136 11 Q130 4 125 11 Q119 26 104 70 Q99 84 96 91 Q75 32 67 10 Q62 4 57 11 Q42 42 27 75 Q22 87 13 99 Q25 104 37 117 Z" /><glyph glyph-name="y" unicode="y" d="M36 115 Q38 97 42 86 Q53 58 62 41 Q66 50 76 73 Q80 82 82 86 Q87 99 88 115 Q101 103 113 98 Q102 84 98 76 Q75 19 60 -7 Q44 -39 17 -24 Q38 -11 51 18 Q48 25 42 40 Q33 60 27 73 Q18 91 12 97 Q23 103 36 115 Z" /><glyph glyph-name="braceleft" unicode="{" d="M30 79 Q26 79 26 85 Q26 92 30 92 Q56 97 54 115 Q54 122 51 133 Q49 144 49 154 Q53 195 96 203 Q89 194 87 176 Q65 171 69 148 Q70 144 71 135 Q72 131 72 129 Q77 92 50 85 Q75 79 73 46 Q73 41 71 33 Q70 28 70 26 Q65 2 91 -4 Q92 -19 96 -28 Q54 -22 49 19 Q49 32 51 41 Q54 50 54 59 Q55 77 30 79 Z" /><glyph glyph-name="braceright" unicode="}" d="M92 93 Q96 91 96 86 Q95 80 92 79 Q69 79 68 59 Q68 50 71 41 Q71 40 72 36 Q74 25 74 19 Q71 -22 26 -28 Q31 -16 33 -4 Q55 4 53 26 Q52 35 50 46 Q47 81 73 86 Q47 88 50 129 Q52 139 53 148 Q56 177 30 175 Q30 187 26 203 Q70 195 74 154 Q74 149 72 140 Q71 135 71 133 Q69 123 69 115 Q70 95 92 93 Z" /><glyph glyph-name="uni3001" unicode="&#x3001;" d="M26 44 L27 45 Q79 29 97 -9 Q99 -19 90 -22 Q82 -23 78 -12 Q62 28 26 44 Z" /><glyph glyph-name="uni3002" unicode="&#x3002;" d="M65 -23 Q31 -21 30 14 Q33 45 65 47 Q96 45 99 12 Q96 -21 65 -23 ZM64 38 Q41 36 38 12 Q40 -12 64 -14 Q88 -12 90 12 Q88 36 64 38 Z" /><glyph glyph-name="uni4E00" unicode="&#x4e00;" d="M227 105 Q229 103 233 98 Q237 93 238 91 Q241 85 233 85 Q223 85 204 85 Q94 84 35 68 Q24 75 16 85 Q14 88 15 89 Q15 90 18 90 Q53 90 124 99 Q127 99 133 100 Q190 106 216 108 Q222 110 227 105 Z" /><glyph glyph-name="uni4E09" unicode="&#x4e09;" d="M225 47 Q230 47 234 43 Q241 35 244 28 Q247 24 246 22 Q246 20 241 20 Q138 25 41 4 Q36 4 21 18 Q18 21 18 23 Q19 24 23 24 Q49 26 116 34 Q185 43 225 47 ZM175 176 Q182 176 185 173 Q191 167 195 161 Q196 158 196 157 Q195 156 192 156 Q143 153 77 140 Q72 140 70 141 Q61 148 55 154 Q75 156 126 166 Q158 173 175 176 ZM172 110 Q178 102 182 98 Q184 93 180 93 Q160 91 119 85 Q90 81 86 81 Q79 81 69 93 Q83 94 121 102 Q151 109 166 111 Q170 111 172 110 Z" /><glyph glyph-name="uni4E0A" unicode="&#x4e0a;" d="M198 130 Q203 126 206 121 Q209 117 205 116 Q200 115 190 113 Q148 105 142 105 Q137 106 131 110 Q131 71 131 28 Q203 36 229 38 Q235 38 238 34 Q244 26 246 19 Q248 15 248 14 Q247 12 243 13 Q207 17 145 12 Q79 7 29 -4 Q26 -5 10 12 Q8 14 8 15 Q8 16 12 16 Q29 17 77 22 Q99 25 111 26 Q112 84 112 76 Q112 89 112 104 Q112 118 112 144 Q111 186 102 198 Q118 191 139 191 Q131 173 131 134 L131 119 Q144 121 168 127 Q184 131 191 132 Q195 132 198 130 Z" /><glyph glyph-name="uni4E0B" unicode="&#x4e0b;" d="M140 149 Q134 140 133 108 Q176 99 190 93 Q193 91 193 72 Q193 68 192 67 Q190 67 186 69 Q168 78 133 101 Q133 68 133 40 Q133 1 133 -7 Q132 -19 131 -19 Q121 -14 109 1 Q114 13 116 48 Q117 81 117 112 Q117 139 113 152 Q93 150 55 142 Q48 141 44 140 Q39 139 24 151 Q21 154 22 155 Q23 156 27 156 Q54 158 128 167 Q186 175 215 178 Q221 179 223 174 Q229 169 232 163 Q234 158 233 157 Q233 156 229 156 Q186 160 121 153 Q130 150 140 149 Z" /><glyph glyph-name="uni4E1A" unicode="&#x4e1a;" d="M161 184 Q156 169 155 134 Q154 113 154 79 Q188 117 193 140 Q207 121 218 116 Q204 109 196 100 Q179 83 154 68 L154 27 Q187 30 161 28 Q187 30 224 34 Q230 34 233 30 Q238 21 240 15 Q242 11 241 10 Q240 8 237 9 Q202 13 148 10 Q91 7 36 -3 Q31 -3 19 10 Q16 12 16 13 Q17 14 21 14 Q39 14 86 19 Q91 20 93 20 Q93 89 92 129 Q92 157 84 174 Q97 168 114 166 Q110 151 109 117 Q109 58 110 22 Q123 24 138 25 Q138 114 137 146 Q137 148 137 152 Q136 181 130 191 Q140 186 161 184 ZM45 108 Q75 90 80 84 Q81 75 74 60 Q73 56 71 55 Q70 55 68 58 Q60 69 42 105 Q41 107 42 108 Q43 109 45 108 Z" /><glyph glyph-name="uni4E2A" unicode="&#x4e2a;" d="M112 205 Q120 198 138 193 Q138 193 137 192 Q129 182 126 175 Q132 170 147 155 Q185 117 202 111 Q224 101 246 88 Q253 83 252 79 Q252 75 245 75 Q206 73 194 80 Q183 88 154 124 Q129 155 119 163 Q93 112 58 72 Q34 45 5 65 Q57 85 100 164 Q111 188 112 205 ZM106 121 Q126 116 136 116 Q133 109 131 94 Q131 93 131 92 Q130 78 132 39 Q133 4 133 -13 Q132 -30 127 -29 Q109 -16 106 -11 Q111 1 113 30 Q115 63 113 95 Q111 111 106 121 Z" /><glyph glyph-name="uni4E2D" unicode="&#x4e2d;" d="M142 202 Q136 188 136 152 Q136 150 136 147 Q173 154 182 162 Q200 145 233 138 Q210 122 197 95 Q205 86 210 78 Q190 78 136 74 Q136 66 137 50 Q137 35 138 27 Q138 21 138 6 Q139 -34 137 -33 Q125 -28 110 -13 Q115 -4 117 33 Q118 51 118 72 Q97 71 78 68 Q80 57 78 54 Q72 55 59 66 Q57 116 42 146 Q59 144 70 140 Q73 140 81 141 Q104 143 118 145 Q118 151 118 156 Q116 192 108 210 Q124 204 142 202 ZM184 135 Q182 136 136 131 Q136 111 136 90 Q142 91 152 92 Q162 93 179 95 Q180 107 183 122 Q185 133 184 135 ZM73 124 Q73 119 75 107 Q76 91 77 83 Q97 86 118 88 Q118 109 118 129 Q84 125 73 124 Z" /><glyph glyph-name="uni4E3A" unicode="&#x4e3a;" d="M191 135 Q205 122 227 119 Q214 110 199 29 Q188 -24 183 -22 Q166 -20 140 14 Q137 18 138 20 Q139 22 144 20 Q171 9 172 19 Q187 75 193 113 Q194 115 193 117 Q192 118 190 117 Q154 112 128 105 Q105 49 67 5 Q43 -23 12 -7 Q71 23 106 101 Q76 93 68 91 Q60 92 47 108 Q61 108 113 116 Q116 123 119 132 Q134 173 132 200 Q143 194 162 190 Q154 180 144 150 Q142 143 137 129 Q135 123 134 120 Q189 131 191 135 ZM126 80 Q147 73 159 65 Q161 63 156 47 Q154 41 152 40 Q150 39 146 44 Q131 60 123 77 Q122 80 122 80 Q123 81 126 80 ZM69 170 Q90 162 102 155 Q103 148 98 137 Q96 131 94 130 Q92 129 88 134 Q71 154 65 167 Q64 170 65 170 Q65 171 69 170 Z" /><glyph glyph-name="uni4E4B" unicode="&#x4e4b;" d="M178 22 Q204 23 244 16 Q253 14 254 10 Q254 6 245 4 Q200 -11 181 -11 Q170 -12 156 -5 Q62 42 20 27 Q17 27 18 29 Q18 37 20 41 Q22 49 27 48 Q41 48 49 47 Q102 81 160 140 Q71 114 54 110 Q48 110 33 126 Q87 133 144 149 Q159 154 166 162 Q183 141 200 134 Q179 130 167 117 Q115 71 68 45 Q87 42 114 34 Q155 21 178 22 ZM88 191 Q109 189 125 183 Q127 181 125 161 Q124 156 122 156 Q121 155 116 159 Q99 172 85 187 Q82 189 83 190 Q84 192 88 191 Z" /><glyph glyph-name="uni4E5F" unicode="&#x4e5f;" d="M87 130 Q80 120 77 104 Q96 110 111 116 Q113 139 113 160 Q114 186 108 202 Q123 194 137 191 Q129 176 129 155 Q127 138 127 123 Q129 124 133 126 Q137 127 139 128 Q156 135 162 144 Q176 133 201 129 Q191 116 188 102 Q187 96 185 86 Q177 46 174 48 Q161 52 140 77 Q138 80 138 81 Q139 82 143 81 Q166 75 165 89 Q165 93 168 103 Q170 114 171 121 Q172 126 171 126 Q171 127 165 125 Q145 116 126 109 Q125 102 125 87 Q124 73 124 66 Q123 43 121 41 Q107 52 104 62 Q107 72 111 103 Q93 96 75 88 Q74 72 72 48 Q69 13 112 14 Q165 14 191 20 Q206 24 206 32 Q207 37 209 53 Q211 66 212 71 Q213 75 215 76 Q217 76 219 72 Q221 67 225 55 Q235 22 238 11 Q240 3 232 1 Q215 -2 175 -3 Q130 -4 107 -2 Q55 4 57 48 Q57 56 58 69 Q58 77 58 81 Q46 77 37 72 Q32 75 23 82 Q18 85 16 87 Q36 90 59 98 Q60 100 60 100 Q60 104 60 110 Q61 133 58 143 Q73 132 87 130 Z" /><glyph glyph-name="uni4E86" unicode="&#x4e86;" d="M138 123 Q146 88 145 33 Q145 -18 137 -20 Q114 -12 83 20 Q79 25 80 27 Q81 29 87 27 Q119 20 120 29 Q124 54 121 87 Q117 117 108 129 Q111 129 118 127 Q123 126 125 126 Q154 154 167 173 Q105 162 63 148 Q52 156 42 170 Q114 170 172 195 Q191 174 211 163 Q179 151 135 124 Q136 124 138 123 Z" /><glyph glyph-name="uni4E8B" unicode="&#x4e8b;" d="M225 82 Q231 83 233 79 Q237 75 240 71 Q242 68 241 66 Q240 65 236 65 Q227 66 207 65 Q197 65 192 65 Q189 58 185 49 Q189 46 192 41 Q194 39 193 38 Q193 37 190 37 Q178 37 154 35 Q142 34 137 34 Q137 13 137 2 Q138 -28 134 -32 Q122 -30 93 -7 Q90 -5 90 -4 Q91 -3 95 -3 Q116 -5 119 -2 Q120 2 120 15 Q121 26 121 32 Q112 31 98 29 Q76 26 77 27 Q70 29 62 38 Q93 40 121 44 L121 59 Q87 55 48 49 Q47 50 44 51 Q35 55 31 58 Q27 61 33 62 Q32 62 34 62 Q48 62 89 66 Q110 68 121 69 L121 84 Q114 83 102 81 Q82 78 77 77 Q71 79 63 89 Q85 89 121 94 Q121 103 120 112 Q113 111 101 109 Q95 108 93 108 Q95 100 93 100 Q88 101 79 108 Q77 128 65 144 Q68 144 75 144 Q82 143 84 143 Q93 143 119 147 L119 150 Q119 157 119 164 Q96 162 57 155 Q50 154 46 153 Q39 155 30 162 Q27 164 27 165 Q28 166 32 166 Q59 167 118 176 Q117 199 111 211 Q125 207 140 208 Q137 196 137 178 Q157 181 195 186 Q209 187 215 188 Q220 188 224 185 Q228 179 231 176 Q233 173 232 172 Q231 170 227 170 Q195 170 136 166 Q136 158 136 150 Q160 153 169 159 Q181 150 201 149 Q188 140 182 127 Q183 126 184 125 Q188 122 189 119 Q157 116 136 114 L136 96 Q170 101 179 106 Q191 94 214 91 Q206 88 200 79 Q213 81 225 82 ZM174 90 Q171 90 163 89 Q146 87 136 86 Q136 79 136 71 Q143 72 155 73 Q169 75 176 76 Q176 77 177 78 Q178 82 178 87 Q179 90 178 90 Q177 91 174 90 ZM165 144 Q163 144 157 143 Q144 141 136 140 L136 123 L166 127 L169 141 Q169 144 168 144 Q168 145 165 144 ZM170 49 Q172 57 173 64 Q167 64 155 63 Q142 62 136 61 L136 45 Q146 47 165 49 Q168 49 170 49 ZM88 133 L91 117 L120 121 Q120 130 120 138 Q115 137 106 136 Q100 135 88 133 Z" /><glyph glyph-name="uni4E8E" unicode="&#x4e8e;" d="M178 191 Q185 184 186 181 Q187 179 187 177 Q186 176 184 176 Q165 172 118 165 Q133 161 147 162 Q143 150 143 123 Q151 124 168 127 Q206 133 223 134 Q229 134 232 131 Q235 128 238 122 Q239 120 240 119 Q242 115 242 114 Q241 112 237 112 Q195 113 142 106 Q143 89 143 65 Q145 33 145 15 Q146 -22 140 -28 Q118 -22 91 9 Q88 13 89 14 Q89 16 93 15 Q120 10 123 13 Q126 22 124 104 Q72 97 39 90 Q36 89 24 98 Q21 101 19 102 Q16 104 17 106 Q18 107 22 107 Q45 109 110 119 Q119 120 124 122 Q124 150 116 165 Q99 162 88 161 Q83 161 71 173 Q89 174 139 185 Q163 190 173 192 Q176 194 178 191 Z" /><glyph glyph-name="uni4E9B" unicode="&#x4e9b;" d="M134 201 Q148 196 162 194 Q157 187 156 157 Q155 144 155 131 Q187 149 194 166 Q202 153 215 144 Q206 142 189 136 Q169 128 155 124 L155 103 Q152 78 182 82 Q213 80 212 92 Q213 97 216 108 Q217 113 218 116 Q219 120 220 120 Q222 120 223 116 Q233 92 237 76 Q241 67 227 66 Q202 63 177 64 Q138 64 140 101 L140 158 Q140 189 134 201 ZM105 179 Q99 161 99 137 L99 135 Q110 138 120 141 Q124 143 127 140 Q131 134 134 129 Q128 128 114 126 Q104 125 99 124 Q99 100 99 84 Q103 85 111 87 Q123 91 128 92 Q131 93 133 90 Q134 88 131 87 Q68 62 36 43 Q30 53 17 65 Q28 67 46 71 Q46 88 45 101 Q45 126 39 139 Q55 133 65 133 Q60 129 60 74 Q72 77 84 80 Q84 113 83 145 Q83 170 77 186 Q90 181 105 179 ZM203 14 Q209 15 210 12 Q216 6 219 -1 Q220 -4 220 -5 Q219 -7 217 -6 Q139 -2 57 -17 Q51 -18 49 -15 Q40 -6 37 -2 Q51 -3 122 6 Q180 12 203 14 ZM165 50 Q170 45 172 42 Q175 39 172 37 Q172 38 171 37 Q155 36 123 31 Q94 27 91 28 Q83 29 77 38 Q94 40 125 45 Q147 50 158 51 Q161 52 164 50 Q164 51 165 50 Z" /><glyph glyph-name="uni4EA7" unicode="&#x4ea7;" d="M198 180 Q202 180 205 177 Q207 175 210 171 Q211 169 212 168 Q214 166 213 164 Q212 163 209 163 Q190 163 163 160 Q174 152 190 152 Q181 146 172 130 Q166 121 160 113 Q175 116 202 119 Q207 120 209 120 Q213 121 218 117 Q226 107 229 101 Q179 99 88 87 Q83 13 52 -21 Q43 -31 27 -31 Q17 -31 8 -26 Q57 2 66 60 Q71 89 62 111 Q77 107 87 102 Q111 104 145 110 Q158 134 159 159 Q131 157 90 149 Q85 148 79 151 Q77 153 70 159 Q75 155 67 161 Q73 162 86 164 Q120 168 139 171 Q171 177 198 180 ZM123 206 Q137 204 150 199 Q154 197 154 193 Q154 187 152 181 Q151 176 149 176 Q148 175 144 178 Q131 188 121 203 Q120 204 120 205 Q121 206 123 206 ZM104 144 Q126 133 128 130 Q129 127 127 117 Q126 115 126 114 Q125 110 123 109 Q120 109 118 112 Q106 128 100 140 Q99 143 100 144 Q101 145 104 144 Z" /><glyph glyph-name="uni4EAC" unicode="&#x4eac;" d="M142 68 Q138 59 138 35 Q138 15 139 3 Q139 -21 133 -28 Q120 -25 93 -5 Q90 -2 90 0 Q91 1 95 1 Q119 0 120 5 Q121 15 121 40 Q121 60 117 71 Q110 71 102 69 Q102 61 101 61 Q99 61 87 69 Q85 105 73 120 Q75 120 83 119 Q91 118 94 118 Q146 125 158 134 Q170 124 191 122 Q179 115 170 88 Q174 85 178 77 Q161 76 121 72 Q129 68 142 68 ZM216 174 Q220 175 223 172 Q229 163 231 159 Q233 157 232 156 Q232 155 229 155 Q142 153 43 135 Q39 133 36 136 Q31 138 24 148 Q56 152 117 161 Q182 170 216 174 ZM97 107 L101 79 L153 89 L157 114 Q158 116 157 117 Q157 117 153 117 Q142 115 112 110 Q102 108 97 107 ZM177 55 Q209 41 218 35 Q219 32 217 10 Q215 4 214 3 Q213 2 209 6 Q194 20 173 50 Q171 54 172 55 Q173 56 177 55 ZM76 49 Q73 32 63 1 Q62 -1 40 3 Q33 5 38 11 Q45 19 65 44 Q70 50 72 52 Q75 56 76 55 Q77 54 76 49 ZM110 205 Q111 205 115 204 Q141 199 143 196 Q146 195 144 178 Q144 173 142 172 Q141 171 136 174 Q122 186 108 201 Q107 203 107 204 Q108 205 110 205 Z" /><glyph glyph-name="uni4EBA" unicode="&#x4eba;" d="M107 188 Q125 178 138 178 Q131 168 125 143 Q121 128 116 114 Q124 107 144 88 Q181 53 192 48 Q194 47 199 45 Q231 30 246 21 Q254 16 254 12 Q254 8 245 8 Q221 7 196 10 Q176 12 166 27 Q159 36 143 58 Q121 89 111 100 Q90 42 62 18 Q33 -4 7 14 Q79 46 105 143 Q112 172 107 188 Z" /><glyph glyph-name="uni4ECE" unicode="&#x4ece;" d="M144 184 Q157 178 174 176 Q167 164 161 131 Q160 126 158 116 Q156 107 155 101 Q180 71 194 51 Q208 33 230 23 Q241 17 251 8 Q254 4 254 1 Q253 -2 248 -2 Q229 -2 208 4 Q195 6 186 22 Q183 27 178 38 Q172 49 169 54 Q157 78 152 86 Q139 39 118 13 Q105 -4 88 -4 Q78 -4 68 2 Q126 32 143 126 Q149 157 144 184 ZM65 167 Q72 163 91 159 Q92 159 93 159 Q87 151 81 125 Q79 116 74 98 Q72 91 71 88 Q106 71 106 69 Q107 63 105 45 Q104 42 103 41 Q101 41 99 44 Q85 59 69 81 Q59 52 47 33 Q33 13 18 13 Q10 13 1 18 Q47 51 62 125 Q67 147 65 167 Z" /><glyph glyph-name="uni4ED6" unicode="&#x4ed6;" d="M126 129 Q121 120 118 104 Q129 110 140 115 Q141 131 141 153 Q141 177 136 191 Q149 185 164 184 Q157 173 157 149 Q157 145 156 136 Q156 128 155 124 Q184 140 189 146 Q199 134 219 129 Q210 122 207 105 Q194 42 189 46 Q175 51 158 73 Q156 76 157 78 Q158 79 161 78 Q180 71 180 80 Q185 102 188 126 Q185 124 174 119 Q162 113 155 109 Q154 101 154 86 Q153 71 153 63 Q153 43 151 40 Q138 48 133 60 Q139 73 140 100 Q136 98 128 94 Q120 89 116 87 Q114 73 114 55 Q112 20 151 21 Q181 21 206 26 Q217 26 219 37 Q221 43 223 51 Q225 59 226 64 Q227 68 229 69 Q231 69 233 65 Q244 33 248 15 Q250 9 242 7 Q221 3 188 1 Q159 -1 144 1 Q97 5 100 50 Q100 55 101 65 Q101 74 101 79 Q98 77 94 74 Q91 73 90 72 Q79 79 71 86 Q85 91 103 99 Q105 124 100 137 Q110 132 126 129 ZM64 191 Q75 182 90 180 Q84 174 79 160 Q69 134 61 119 Q68 116 75 116 Q69 104 69 88 Q69 80 69 62 Q70 -18 67 -16 Q52 -10 46 0 Q47 2 48 8 Q49 13 50 16 Q53 28 53 45 Q54 57 54 98 Q54 101 54 103 Q47 91 39 80 Q24 59 1 70 Q40 99 60 159 Q65 174 64 191 Z" /><glyph glyph-name="uni4F20" unicode="&#x4f20;" d="M118 63 Q127 68 133 88 Q113 85 102 81 Q96 80 93 83 Q86 89 82 94 Q93 96 122 101 Q132 103 137 104 Q138 109 140 119 Q141 126 142 130 Q139 130 134 129 Q126 127 125 128 Q117 129 106 139 Q127 142 143 146 Q147 182 143 203 Q156 195 174 193 Q168 180 162 151 Q175 154 190 157 Q194 157 197 156 Q198 155 200 153 Q205 149 206 147 Q208 143 204 141 Q180 138 159 133 Q156 119 154 107 Q180 112 227 119 Q232 119 235 116 Q240 111 242 105 Q244 101 239 101 Q199 99 150 91 Q148 82 143 67 Q172 74 179 80 Q202 65 217 61 Q199 47 175 11 Q183 7 184 6 Q186 1 184 -18 Q184 -22 182 -23 Q181 -24 177 -22 Q147 3 131 21 Q129 24 130 26 Q131 28 135 26 Q140 25 153 20 Q159 18 162 17 Q179 51 182 62 Q156 57 126 43 Q125 49 118 63 ZM82 112 Q77 99 77 82 Q77 24 76 7 Q76 -14 74 -14 Q58 -7 52 2 Q55 8 57 20 Q62 54 60 108 Q59 107 57 104 Q46 88 39 80 Q31 70 19 70 Q11 70 1 75 Q41 97 69 166 Q75 181 75 197 Q91 186 103 183 Q92 175 86 161 Q76 137 65 116 Q73 113 82 112 Z" /><glyph glyph-name="uni4F3C" unicode="&#x4f3c;" d="M72 196 Q82 188 99 184 Q94 181 85 163 Q76 139 67 123 Q72 121 78 121 Q75 111 74 88 Q74 27 74 8 Q73 -15 72 -15 Q58 -11 51 -2 Q52 -1 53 6 Q54 13 55 17 Q59 44 59 109 Q50 93 40 80 Q25 64 4 74 Q42 98 67 163 Q73 181 72 196 ZM198 49 Q220 38 241 25 Q242 18 237 0 Q236 -4 234 -4 Q232 -4 229 -1 Q206 25 194 44 Q193 45 193 45 Q184 29 171 12 Q150 -15 122 -1 Q189 33 197 135 Q199 155 193 168 Q206 163 222 162 Q218 156 215 134 Q214 132 214 131 Q206 77 195 50 Q195 50 198 49 ZM163 79 Q166 81 168 79 Q170 76 167 74 Q127 38 107 13 Q102 23 89 33 Q103 41 104 63 Q109 111 101 128 Q113 122 127 122 Q122 110 122 97 Q122 89 121 77 Q121 63 120 54 Q155 74 163 79 ZM133 162 Q161 154 166 150 Q168 145 164 131 Q163 126 161 126 Q160 125 156 129 Q139 144 129 157 Q126 161 127 162 Q128 163 133 162 Z" /><glyph glyph-name="uni4F53" unicode="&#x4f53;" d="M162 193 Q158 179 157 142 L157 138 Q165 140 180 142 Q192 145 199 146 Q204 147 207 143 Q208 140 212 136 Q213 134 214 133 Q215 131 215 130 Q214 129 211 129 Q184 129 159 125 Q165 118 178 101 Q208 61 218 58 Q234 48 252 35 Q255 33 254 31 Q253 28 250 28 Q214 29 208 35 Q200 39 172 86 Q162 102 157 110 Q158 100 158 78 Q158 56 158 45 Q159 45 161 46 Q166 46 176 49 Q179 50 181 48 Q182 47 182 47 Q186 44 190 40 Q192 38 191 37 Q191 36 189 36 Q173 35 158 30 Q160 -21 158 -26 Q151 -24 137 -7 Q140 3 141 26 Q129 23 123 23 Q123 23 122 24 Q115 28 112 33 Q126 36 122 35 Q136 39 142 40 Q143 70 143 103 Q125 60 101 34 Q90 22 70 27 Q70 -24 68 -20 Q60 -18 45 -4 Q47 -1 51 16 Q54 36 54 100 Q47 89 39 82 Q24 69 3 79 Q49 108 68 167 Q74 183 74 196 Q86 187 100 182 Q91 175 86 160 Q75 133 63 114 Q68 112 74 112 Q70 99 70 76 L70 33 Q107 58 136 121 Q131 120 121 118 Q111 115 106 114 Q100 112 97 115 Q90 119 86 125 Q117 129 142 135 Q142 144 142 154 Q142 184 135 201 Q145 195 162 193 Z" /><glyph glyph-name="uni4F5C" unicode="&#x4f5c;" d="M232 154 Q235 151 239 147 Q242 143 238 142 Q227 140 197 134 Q169 129 160 127 Q172 125 179 125 Q175 115 174 99 Q180 100 194 103 Q208 107 215 108 Q218 109 220 106 Q221 105 224 101 Q227 96 228 95 Q204 90 174 86 L174 54 Q181 55 200 59 Q212 62 218 63 Q221 64 224 61 Q227 58 231 50 Q227 49 217 47 Q182 41 176 41 Q175 41 174 42 Q174 34 174 18 Q173 0 173 -10 Q173 -25 169 -27 Q151 -14 148 -7 Q160 1 156 101 Q155 117 153 126 Q150 126 148 126 Q145 128 141 131 Q132 114 124 102 Q112 83 88 91 Q138 137 150 206 Q161 197 175 194 Q167 188 161 172 Q154 156 145 138 Q152 139 170 144 Q207 154 224 157 Q228 158 232 154 ZM79 202 Q89 193 104 188 Q93 174 90 166 Q81 146 70 128 Q79 125 89 124 Q85 110 85 89 Q85 77 85 55 Q86 -13 83 -9 Q74 -5 60 8 Q63 14 65 28 Q70 53 68 121 Q68 123 67 123 Q55 102 41 87 Q25 70 3 82 Q47 108 73 172 Q79 184 79 202 Z" /><glyph glyph-name="uni4F7F" unicode="&#x4f7f;" d="M198 161 Q199 161 200 160 Q204 157 207 153 Q209 150 205 149 Q193 147 168 143 Q163 142 160 142 L159 121 Q176 126 187 130 Q199 118 226 111 Q224 110 220 108 Q207 101 202 92 Q203 91 206 88 Q211 82 212 79 Q193 78 156 74 Q154 56 148 39 Q183 17 202 12 Q228 5 249 -5 Q253 -8 253 -10 Q253 -12 249 -13 Q233 -15 209 -15 Q198 -16 187 -9 Q173 0 141 24 Q132 3 116 -6 Q91 -22 72 -4 Q108 6 126 35 Q112 46 98 54 Q94 56 97 59 Q100 63 105 62 Q120 56 133 48 Q137 60 140 73 Q139 73 137 73 Q130 71 121 71 Q122 63 122 63 Q118 62 107 70 Q105 100 92 118 Q103 117 114 114 Q115 114 117 114 Q128 115 144 118 Q145 128 145 140 Q125 137 112 136 Q103 140 100 146 Q108 147 133 151 Q141 152 145 153 Q144 159 144 166 Q143 190 137 202 Q152 197 165 195 Q161 186 161 166 L161 156 Q162 156 165 157 Q177 159 192 163 Q196 163 198 161 ZM72 195 Q85 183 97 180 Q91 176 83 159 Q73 136 63 118 Q68 116 73 116 Q70 106 70 81 Q70 69 70 47 Q71 -28 68 -25 Q61 -24 45 -9 Q48 -3 51 13 Q55 38 53 102 Q46 91 37 82 Q21 69 0 79 Q44 104 66 165 Q72 181 72 195 ZM189 114 Q189 114 182 113 Q168 111 159 110 Q159 107 158 101 Q158 96 158 94 Q158 91 158 87 Q164 88 176 90 Q182 91 184 91 Q185 94 186 99 Q190 113 189 114 ZM117 103 Q118 99 119 89 Q120 84 120 82 Q124 82 133 84 Q139 85 142 85 Q142 86 142 89 Q143 93 143 95 L144 107 Q139 106 129 105 Q121 103 117 103 Z" /><glyph glyph-name="uni4F9B" unicode="&#x4f9b;" d="M212 145 Q219 138 221 134 Q222 133 222 132 Q222 131 219 130 Q214 130 204 128 Q194 127 189 126 Q188 115 185 89 Q187 106 184 82 Q210 87 235 88 Q237 89 241 87 Q242 86 242 86 Q245 82 251 73 Q252 71 252 69 Q251 68 249 68 Q196 71 94 55 Q90 53 88 56 Q81 62 77 68 Q85 67 114 71 Q122 72 126 73 Q126 81 125 94 Q125 109 124 115 Q122 115 118 115 Q113 114 112 115 Q104 117 96 125 Q98 125 102 126 Q115 128 123 130 Q121 160 113 174 Q123 172 140 172 Q138 153 138 132 Q144 133 155 136 Q168 138 175 140 Q175 142 175 144 Q178 182 175 198 Q187 191 201 191 Q196 183 193 155 Q192 153 192 149 Q191 145 191 143 Q200 145 206 146 Q209 147 212 145 ZM75 196 Q86 187 101 182 Q93 175 86 160 Q80 146 67 122 Q65 118 64 116 Q69 114 74 114 Q74 113 73 110 Q71 92 71 80 Q71 68 71 46 Q72 -26 69 -22 Q56 -16 48 -5 Q48 -3 50 6 Q51 11 52 14 Q55 24 56 44 Q56 61 55 103 Q48 93 39 84 Q22 69 2 80 Q43 105 70 166 Q75 178 75 196 ZM131 55 Q138 47 152 40 Q147 39 137 25 Q124 4 110 -6 Q93 -18 77 -4 Q107 8 123 34 Q131 48 131 55 ZM140 76 Q144 76 153 78 Q164 79 169 80 Q171 93 173 118 Q172 103 173 123 Q153 120 139 117 Q139 100 140 76 ZM175 47 Q211 32 225 22 Q228 17 224 -3 Q223 -9 222 -10 Q220 -11 217 -8 Q203 3 173 39 Q172 41 171 42 Q167 46 168 48 Q170 49 175 47 Z" /><glyph glyph-name="uni5149" unicode="&#x5149;" d="M154 88 Q142 75 140 29 Q134 1 169 3 Q220 3 222 17 Q224 34 227 47 Q228 51 229 51 Q231 51 232 47 Q241 23 247 -4 Q249 -9 241 -10 Q207 -17 163 -14 Q120 -14 126 28 Q126 35 128 49 Q129 68 130 77 Q130 87 129 94 Q111 92 95 89 Q104 84 115 82 Q107 74 101 58 Q83 17 62 -1 Q39 -17 18 -6 Q85 28 90 89 Q57 84 55 84 Q47 85 36 95 Q61 96 114 107 Q115 117 115 148 Q114 190 108 202 Q121 197 137 197 Q134 188 132 164 Q132 159 132 156 Q131 134 131 110 Q144 112 168 116 Q183 119 190 120 Q193 120 195 119 Q202 112 204 108 Q205 106 205 105 Q204 104 202 104 Q189 103 157 98 Q141 96 133 95 Q142 90 154 88 ZM143 126 L140 129 Q172 159 176 181 Q185 170 200 162 Q199 162 198 161 Q188 155 182 150 Q166 137 143 126 ZM63 155 Q89 147 95 142 Q96 137 91 121 Q90 118 89 118 Q88 118 86 120 Q74 132 60 152 Q59 154 60 155 Q61 156 63 155 Z" /><glyph glyph-name="uni5165" unicode="&#x5165;" d="M78 172 Q88 175 94 172 Q111 157 146 112 Q187 59 204 50 Q227 37 249 22 Q255 17 254 14 Q254 11 247 11 Q194 12 179 23 Q170 31 145 73 Q127 103 117 118 Q86 48 53 18 Q36 5 6 15 Q63 45 105 135 Q92 153 78 166 Q75 169 78 172 Z" /><glyph glyph-name="uni5173" unicode="&#x5173;" d="M203 95 Q206 96 209 93 Q210 92 210 92 Q215 87 219 79 Q221 76 220 75 Q220 74 217 74 Q185 75 123 70 Q130 64 145 49 Q173 21 185 17 Q215 4 234 -7 Q242 -12 242 -15 Q242 -18 234 -19 Q206 -21 189 -17 Q170 -15 161 -2 Q155 6 143 24 Q127 47 118 57 Q107 14 78 -7 Q55 -24 26 -9 Q86 6 103 67 Q70 64 45 59 Q40 58 37 60 Q31 66 26 73 Q37 72 94 80 Q103 81 107 82 Q107 85 108 87 Q111 102 106 116 Q79 113 73 113 Q68 115 57 125 Q75 126 132 136 Q156 140 167 142 Q170 143 173 140 Q180 135 183 129 Q184 127 184 127 Q183 126 182 126 Q134 121 112 117 Q113 117 114 116 Q122 114 132 113 Q127 102 124 87 Q124 87 124 85 Q178 93 203 95 ZM130 140 L125 144 Q157 182 159 207 Q167 194 188 186 Q180 184 164 168 Q144 148 130 140 ZM76 183 Q97 173 109 164 Q110 162 105 146 Q103 140 101 140 Q99 140 96 144 Q85 157 72 180 Q70 184 71 185 Q72 185 76 183 Z" /><glyph glyph-name="uni5174" unicode="&#x5174;" d="M224 107 Q230 108 232 103 Q238 96 240 90 Q242 85 241 84 Q241 83 237 84 Q174 94 36 72 Q33 71 18 83 Q15 86 16 87 Q17 88 21 87 Q43 88 109 95 Q133 98 146 99 Q172 149 176 186 Q188 175 207 169 Q196 158 189 145 Q173 120 158 101 Q165 102 180 103 Q210 106 224 107 ZM114 56 Q102 47 98 39 Q81 11 67 1 Q50 -13 27 1 Q61 13 80 42 Q89 59 89 69 Q100 60 114 56 ZM150 61 Q189 43 207 30 Q210 24 205 4 Q204 -1 202 -2 Q200 -3 196 1 Q168 30 146 58 Q144 61 145 61 Q147 62 150 61 ZM101 180 Q133 159 136 152 Q137 143 132 128 Q129 124 126 128 Q108 156 98 178 Q97 180 98 181 Q99 182 101 180 ZM54 156 Q76 144 90 132 Q91 127 86 112 Q85 107 83 107 Q82 106 79 110 Q64 130 52 154 Q49 159 54 156 Z" /><glyph glyph-name="uni5177" unicode="&#x5177;" d="M227 65 Q233 65 235 61 Q238 57 242 49 Q243 48 243 47 Q245 43 244 42 Q243 40 240 41 Q170 51 39 29 Q35 28 22 39 Q21 40 21 40 Q18 43 19 44 Q20 45 24 45 Q37 45 71 48 Q77 49 80 49 Q81 168 72 186 Q77 185 92 180 Q140 185 153 195 Q165 184 186 183 Q179 172 178 150 Q176 132 176 60 Q185 61 201 62 Q218 64 227 65 ZM101 169 Q100 169 98 171 Q96 172 95 173 Q96 161 96 146 Q105 148 119 151 Q128 153 131 154 Q136 154 142 141 Q131 140 107 137 Q99 135 96 135 L96 115 Q113 118 132 123 Q136 122 143 110 Q132 109 110 106 Q100 105 96 104 L96 83 Q105 85 102 84 Q129 90 136 91 Q142 89 147 78 Q134 77 102 73 Q98 72 96 72 L96 50 Q106 52 127 54 Q147 57 157 58 Q157 75 157 109 Q158 149 158 173 Q158 177 158 177 Q157 178 154 177 Q135 175 101 169 ZM94 36 Q103 26 117 22 Q107 18 96 4 Q84 -10 71 -18 Q52 -28 35 -16 Q82 1 94 36 ZM147 29 Q191 16 196 10 Q198 5 199 -13 Q199 -19 198 -20 Q197 -21 193 -18 Q167 2 144 24 Q140 28 141 29 Q142 30 147 29 Z" /><glyph glyph-name="uni5185" unicode="&#x5185;" d="M71 125 Q71 108 70 67 Q70 28 70 13 Q69 -12 65 -11 Q60 -9 47 6 Q51 20 52 51 Q54 84 52 113 Q52 130 46 146 Q53 145 71 138 Q74 138 82 139 Q105 140 118 142 Q118 145 119 151 Q120 162 121 169 Q122 189 116 207 Q130 201 144 200 Q138 187 137 167 Q137 155 135 145 Q173 151 185 158 Q201 143 217 140 Q210 129 209 108 Q209 87 209 40 Q211 -24 208 -22 Q198 -25 164 4 Q158 10 159 11 Q159 13 167 12 Q184 11 188 14 Q190 16 189 103 Q189 125 189 133 Q190 141 184 139 Q179 139 166 137 Q145 134 133 133 Q131 117 128 103 Q160 92 172 85 Q175 80 176 60 Q176 54 175 54 Q173 53 169 56 Q140 81 126 97 Q125 91 122 82 Q120 77 119 74 Q106 44 72 51 Q108 73 116 131 Q108 130 91 128 Q76 126 71 125 Z" /><glyph glyph-name="uni518D" unicode="&#x518d;" d="M165 149 Q181 137 199 136 Q191 124 193 72 Q213 75 232 77 Q238 78 241 73 Q245 69 249 61 Q251 57 250 56 Q250 55 246 55 Q223 56 193 56 Q194 36 194 15 Q195 -26 191 -28 Q180 -29 146 1 Q143 4 144 6 Q144 8 148 7 Q178 3 175 12 L175 55 Q137 53 85 45 L85 21 Q85 -18 83 -21 Q73 -18 60 -2 Q67 15 69 42 Q48 39 33 36 Q26 36 14 46 Q11 48 12 49 Q12 50 16 50 Q41 52 69 56 Q70 75 70 103 Q70 125 63 139 Q77 136 87 133 Q88 133 90 133 Q104 134 121 138 Q121 156 116 168 Q87 164 61 159 Q60 159 58 161 Q50 166 45 170 Q43 173 48 174 Q70 175 152 188 Q181 192 194 194 Q199 195 202 191 Q204 190 207 185 Q209 183 210 182 Q212 179 211 177 Q210 176 206 176 Q174 176 125 169 Q134 168 142 166 Q138 155 137 140 Q160 145 165 149 ZM157 105 Q162 100 164 97 Q165 95 165 94 Q165 93 163 93 Q148 92 136 90 L136 65 Q142 66 156 68 Q169 69 175 70 Q175 101 173 130 Q173 133 170 133 Q154 131 137 127 Q136 117 136 103 Q144 105 151 106 Q156 108 157 105 ZM85 58 Q91 59 103 61 Q115 62 121 63 Q121 76 122 88 Q109 85 102 85 Q95 88 89 95 Q100 96 118 99 Q116 99 122 100 L122 125 Q100 121 93 120 Q92 120 90 122 Q88 123 87 124 Q86 115 86 105 Q86 96 85 81 Q85 66 85 58 Z" /><glyph glyph-name="uni51C9" unicode="&#x51c9;" d="M163 68 Q159 61 158 45 Q158 37 159 25 Q160 12 160 4 Q161 -19 157 -24 Q141 -20 116 1 Q113 5 114 6 Q115 8 119 7 Q143 1 141 8 Q144 23 142 47 Q142 62 139 71 Q133 71 127 69 Q127 65 127 62 Q128 60 125 61 Q119 65 113 69 Q112 100 100 121 Q103 121 109 120 Q117 119 120 118 Q160 122 171 131 Q189 118 205 114 Q192 105 183 87 Q191 79 191 77 Q180 76 142 72 Q150 68 163 68 ZM221 169 Q225 170 228 167 Q230 165 235 158 Q237 155 238 154 Q240 150 235 150 Q179 150 98 135 Q95 133 91 137 Q81 144 79 147 Q99 149 154 158 Q200 166 221 169 ZM73 109 Q80 117 82 116 Q84 115 80 105 Q62 62 38 17 Q25 32 17 49 Q15 53 17 55 Q19 56 23 53 Q26 51 29 54 Q33 59 42 70 Q64 97 73 109 ZM122 106 Q124 95 126 80 Q132 81 147 84 Q163 86 167 87 Q172 105 173 115 Q169 114 157 112 Q132 108 122 106 ZM182 53 Q209 45 220 38 Q221 35 219 16 Q217 12 216 12 Q215 11 211 14 Q210 15 206 19 Q185 40 178 49 Q176 52 177 53 Q178 54 182 53 ZM107 49 Q104 19 100 1 Q91 6 80 8 Q74 10 79 16 Q94 36 102 50 Q104 53 105 53 Q107 52 107 49 ZM40 167 Q62 160 70 155 Q73 151 68 136 Q67 131 66 131 Q65 130 61 133 Q47 145 35 162 Q33 167 34 168 Q35 169 40 167 ZM129 196 Q160 193 165 190 Q167 183 166 170 Q166 164 162 166 Q141 178 127 191 Q124 194 125 195 Q125 197 129 196 Z" /><glyph glyph-name="uni51FA" unicode="&#x51fa;" d="M179 157 Q193 147 208 145 Q202 137 201 125 Q198 113 198 100 Q195 77 192 77 Q186 79 175 92 Q166 93 141 91 Q160 93 136 91 Q136 75 136 21 Q164 25 172 26 Q177 26 181 20 Q184 23 184 28 Q188 46 185 73 Q198 64 213 61 Q208 53 207 39 Q204 24 204 12 Q201 -9 198 -13 Q189 -11 179 7 Q84 5 52 -12 Q50 1 42 9 Q51 14 52 35 Q52 52 46 63 Q60 56 77 56 Q74 47 72 36 Q71 24 69 11 Q73 12 81 13 Q106 17 119 18 Q119 74 119 90 Q67 83 55 75 Q53 88 47 94 Q55 98 55 119 Q55 135 49 147 Q65 139 80 139 Q77 131 76 120 Q76 117 75 112 Q74 101 73 96 Q95 100 119 104 Q119 111 118 124 Q118 134 118 138 Q117 184 108 203 Q125 198 141 198 Q137 182 137 157 Q136 133 136 107 Q138 107 143 108 Q156 111 168 111 Q173 111 177 107 Q182 130 179 157 Z" /><glyph glyph-name="uni51FB" unicode="&#x51fb;" d="M187 155 Q192 150 196 144 Q198 141 194 140 Q167 135 138 132 Q137 115 137 97 Q201 105 222 108 Q229 110 233 105 Q240 97 243 90 Q245 87 244 86 Q243 84 238 85 Q198 88 137 81 Q137 37 138 16 Q145 18 159 19 Q170 21 174 22 Q178 22 181 19 Q183 28 183 39 Q183 51 182 66 Q193 57 209 54 Q205 47 203 32 Q201 19 199 -1 Q198 -15 197 -16 Q191 -17 177 3 Q95 2 63 -14 Q61 -1 55 5 Q72 21 57 58 Q70 51 87 51 Q83 44 82 31 Q81 24 81 15 Q80 10 80 7 Q82 7 103 10 Q115 12 121 13 L121 80 Q67 73 34 66 Q27 71 18 81 Q17 83 18 84 Q18 84 20 84 Q54 85 120 94 Q120 114 120 130 Q87 125 81 125 Q76 125 64 137 Q73 138 98 142 Q113 144 120 145 Q119 185 110 201 Q127 197 142 197 Q139 181 138 155 Q138 152 138 148 Q151 151 173 155 Q179 156 181 156 Q185 158 187 155 Z" /><glyph glyph-name="uni5212" unicode="&#x5212;" d="M114 104 Q121 93 133 88 Q122 80 113 69 Q106 60 98 52 Q109 33 122 21 Q125 18 126 18 Q127 18 128 22 Q130 25 133 34 Q134 38 134 39 Q135 45 137 45 Q139 44 140 38 Q141 29 143 4 Q142 7 143 -4 Q144 -12 141 -14 Q139 -16 133 -12 Q104 7 86 40 Q71 28 58 20 Q32 6 14 23 Q50 31 78 56 Q69 77 62 102 Q56 100 45 97 Q31 92 30 92 Q22 93 14 101 Q22 102 46 111 Q55 114 59 116 Q59 117 59 118 Q58 124 55 132 Q54 135 53 141 Q48 175 39 188 Q56 184 70 185 Q66 162 72 135 Q72 129 74 123 Q90 129 107 136 Q112 138 114 135 Q115 134 118 132 Q121 129 123 127 Q125 124 122 123 Q119 122 111 119 Q90 111 78 107 Q81 93 89 71 Q90 69 90 68 Q91 69 93 71 Q97 74 99 77 Q112 92 114 104 ZM190 203 Q205 197 220 198 Q215 178 215 142 Q215 120 216 72 Q217 28 217 9 Q217 -24 214 -25 Q199 -22 169 2 Q166 5 166 6 Q167 8 172 7 Q194 5 197 8 Q198 9 199 49 Q199 96 198 140 Q198 185 190 203 ZM163 43 Q155 50 148 59 Q154 76 153 124 Q153 142 148 156 Q160 151 172 151 Q168 140 168 124 L168 67 Q168 50 168 45 Q167 42 166 41 Q165 41 163 43 ZM88 176 Q92 175 101 173 Q117 170 117 169 Q119 168 119 150 Q118 145 114 147 Q97 160 86 172 Q84 174 85 175 Q85 176 88 176 Z" /><glyph glyph-name="uni521B" unicode="&#x521b;" d="M136 148 Q139 144 139 126 Q139 122 137 121 Q135 120 132 122 Q108 140 93 157 Q80 137 60 109 Q70 106 73 104 Q94 108 102 117 Q116 107 131 104 Q123 97 119 83 Q116 64 111 49 Q108 42 101 46 Q94 50 80 61 Q79 63 79 64 Q80 66 82 65 Q87 65 91 65 Q96 65 97 68 Q102 85 102 98 Q103 101 100 100 Q98 100 89 97 Q76 94 73 93 Q70 61 70 40 Q70 24 87 24 Q110 24 114 26 Q122 27 123 33 Q124 36 125 41 Q127 47 128 51 Q129 55 131 56 Q132 56 134 52 Q136 47 140 37 Q145 23 146 18 Q148 10 140 8 Q125 4 88 4 Q58 4 57 36 Q57 58 57 85 Q57 89 55 98 Q57 92 55 101 Q46 89 39 83 Q31 75 22 75 Q13 75 3 83 Q39 100 77 166 Q86 180 89 198 Q103 187 115 183 Q104 176 95 161 Q132 152 136 148 ZM186 202 Q202 196 218 194 Q214 173 213 138 Q212 91 215 33 Q217 -22 210 -24 Q199 -24 170 3 Q167 6 168 8 Q169 10 173 9 Q183 9 191 9 Q197 9 196 14 Q198 94 195 140 Q194 188 186 202 ZM169 49 Q168 50 166 52 Q156 61 154 66 Q157 72 157 83 Q158 91 158 123 Q158 142 153 157 Q172 149 181 149 Q176 137 175 123 Q175 87 175 52 Q175 49 173 48 Q171 47 169 49 Z" /><glyph glyph-name="uni5230" unicode="&#x5230;" d="M142 40 Q50 8 31 -4 Q27 11 15 20 Q34 22 77 32 L77 59 Q61 56 53 56 Q49 56 43 61 Q40 63 38 65 Q54 67 76 73 Q76 90 70 101 Q46 93 39 90 Q34 101 28 109 Q42 111 52 124 Q68 144 71 157 Q67 156 60 155 Q46 153 44 153 Q37 155 28 165 Q38 165 85 175 Q90 176 100 178 Q114 181 121 183 Q124 184 127 181 Q133 176 136 171 Q138 168 133 167 Q126 166 107 163 Q89 159 80 158 Q88 154 95 151 Q86 145 79 136 Q72 128 55 112 Q61 113 84 117 Q101 121 109 122 Q106 125 102 132 Q101 135 100 136 Q98 139 99 140 Q100 141 104 140 Q105 140 106 139 Q124 129 131 124 Q134 121 134 117 Q134 110 132 102 Q131 98 129 98 Q127 98 125 101 Q123 103 117 110 Q121 106 115 113 Q108 112 90 106 Q79 103 74 102 Q77 102 82 101 Q91 99 97 99 Q92 87 93 77 Q105 80 114 83 Q119 79 126 71 Q116 68 92 63 Q92 47 92 36 Q99 38 113 41 Q130 46 136 47 Q142 48 144 45 Q147 42 142 40 ZM190 206 Q213 201 223 202 Q220 189 219 174 Q218 162 218 127 Q218 76 220 9 Q221 -24 216 -26 Q202 -23 172 -1 Q170 1 170 4 Q171 6 174 5 Q188 3 195 4 Q200 5 201 10 Q202 54 199 142 Q198 182 190 206 ZM166 43 Q158 50 150 60 Q156 69 156 129 Q156 146 151 161 Q163 155 177 155 Q172 145 172 128 Q173 79 172 46 Q172 42 170 42 Q168 41 166 43 Z" /><glyph glyph-name="uni5236" unicode="&#x5236;" d="M151 119 Q153 118 156 112 Q157 110 157 109 Q157 108 155 108 Q121 103 100 99 Q100 90 100 79 Q115 82 120 87 Q131 77 148 75 Q142 68 142 49 Q142 43 143 34 Q144 19 144 10 Q143 3 137 5 Q121 12 109 24 Q105 26 106 28 Q106 29 111 29 Q125 27 124 32 Q125 38 124 52 Q124 61 124 66 Q124 70 123 70 Q122 71 119 70 Q112 69 101 67 Q101 49 101 29 Q101 21 101 24 Q103 -30 101 -28 Q92 -27 78 -12 Q83 -3 84 32 Q84 36 84 44 Q85 57 85 64 Q78 62 65 61 Q61 60 60 60 Q60 35 60 27 Q60 0 57 2 Q54 3 40 16 Q50 49 39 77 Q51 75 60 71 Q64 72 73 73 Q81 75 85 75 L85 96 Q42 87 27 82 Q25 83 16 93 Q13 96 12 97 Q36 100 85 110 L85 132 Q68 129 65 130 Q65 130 63 131 Q62 131 58 134 Q54 125 49 117 Q40 104 20 111 Q52 138 51 172 Q61 165 73 163 Q69 159 63 148 Q62 147 62 146 Q62 145 62 143 Q61 141 61 140 Q65 141 74 143 Q81 144 85 145 L85 153 Q84 186 78 200 Q87 195 105 193 Q100 175 100 152 L100 149 Q103 150 110 151 Q121 154 126 155 Q135 151 139 142 Q115 137 100 135 Q100 124 100 112 Q123 117 145 120 Q149 121 151 119 ZM196 202 Q208 198 223 199 Q218 177 219 149 Q219 116 221 57 Q222 5 222 -19 Q222 -27 216 -25 Q196 -18 173 1 Q170 4 170 6 Q171 8 175 7 Q198 6 202 7 Q205 17 203 139 Q203 184 196 202 ZM174 47 Q166 53 158 63 Q164 73 164 117 Q164 134 159 149 Q171 144 183 144 Q179 135 179 118 Q179 105 180 81 Q180 60 180 49 Q180 46 178 46 Q177 45 174 47 Z" /><glyph glyph-name="uni5237" unicode="&#x5237;" d="M128 100 Q139 91 155 90 Q149 81 151 57 Q151 23 146 21 Q136 22 116 41 Q113 44 113 46 Q113 48 117 47 Q132 44 131 50 Q133 59 131 83 Q132 86 129 86 Q127 86 123 85 Q115 83 110 82 Q110 50 110 0 Q110 -18 106 -18 Q96 -11 89 -1 Q96 7 96 79 Q88 78 82 76 Q80 76 77 78 Q77 60 77 42 Q77 18 76 19 Q71 21 60 34 Q66 49 62 79 Q56 56 43 32 Q28 6 2 15 Q47 50 59 138 Q62 165 56 180 Q64 178 76 172 Q109 176 119 185 Q133 174 150 170 Q137 161 129 142 Q133 139 136 132 Q121 130 80 123 Q74 122 72 122 Q69 105 66 90 Q70 89 76 87 Q80 88 86 89 Q93 90 96 90 L96 93 Q96 109 90 118 Q107 113 115 113 Q112 110 110 93 Q123 96 128 100 ZM201 195 Q217 189 232 190 Q226 175 226 134 Q225 109 227 59 Q228 25 228 9 Q228 -26 225 -26 Q209 -23 180 2 Q177 5 177 7 Q178 9 182 9 Q206 6 208 9 Q209 10 210 47 Q210 88 209 132 Q209 176 201 195 ZM179 45 Q172 51 165 60 Q171 73 169 116 Q169 138 165 147 Q178 142 189 142 Q185 133 185 115 Q185 94 185 68 Q185 53 185 46 Q184 43 183 43 Q182 43 179 45 ZM75 161 L73 134 Q80 136 97 139 Q111 141 115 142 L120 169 Q115 168 94 164 Q80 162 75 161 Z" /><glyph glyph-name="uni526A" unicode="&#x526a;" d="M131 39 Q122 31 114 21 Q95 -6 76 -20 Q55 -33 34 -20 Q85 0 106 42 Q89 38 70 36 Q63 42 56 50 Q140 55 166 67 Q180 52 203 47 Q194 39 191 29 Q188 19 184 1 Q179 -18 177 -25 Q174 -35 165 -28 Q152 -20 134 -3 Q132 -1 132 1 Q133 2 136 2 Q162 -3 163 5 Q168 19 173 45 Q174 49 173 49 Q173 50 167 50 Q165 50 159 49 Q136 46 120 44 Q121 43 123 42 Q126 41 131 39 ZM220 180 Q225 182 228 177 Q229 176 232 172 Q234 168 235 166 Q237 164 236 162 Q235 161 232 161 Q194 164 142 160 Q89 156 47 148 Q42 147 29 158 Q27 161 28 162 Q29 163 32 163 Q55 163 113 169 Q131 171 140 172 Q156 198 156 217 Q167 208 183 203 Q177 201 166 188 Q158 178 152 173 Q185 178 220 180 ZM98 149 Q109 142 123 143 Q118 135 120 100 Q120 95 120 87 Q121 58 118 60 Q111 59 90 76 Q86 80 87 81 Q88 82 93 81 Q107 80 105 88 Q105 120 104 136 Q104 138 104 138 Q103 139 101 138 Q95 137 83 134 Q79 133 77 133 Q75 133 74 134 Q74 128 74 118 Q84 120 93 121 Q98 118 100 113 Q96 113 87 112 Q79 111 74 110 L74 97 Q77 98 84 98 Q90 99 93 99 Q95 99 98 93 Q100 91 100 90 Q91 90 78 88 Q75 88 74 88 Q73 84 73 79 Q71 57 68 56 Q58 62 54 72 Q61 77 62 117 Q62 137 58 145 Q61 143 69 141 Q70 141 71 141 Q90 141 98 149 ZM176 156 Q187 151 199 152 Q195 138 196 94 Q197 62 193 60 Q185 60 161 80 Q158 81 159 83 Q159 84 163 84 Q179 84 179 87 Q181 93 181 120 Q181 144 176 156 ZM138 141 Q146 137 160 137 Q156 128 156 115 Q156 108 156 101 Q156 78 155 79 Q151 80 139 89 Q144 97 143 119 Q143 131 138 141 ZM88 203 Q89 203 92 202 Q114 194 114 193 Q115 190 113 176 Q112 170 107 173 Q94 187 86 200 Q85 202 85 203 Q86 204 88 203 Z" /><glyph glyph-name="uni529B" unicode="&#x529b;" d="M114 200 Q131 191 149 191 Q139 175 135 151 Q135 145 133 138 Q171 147 179 153 Q191 139 220 131 Q208 121 203 92 Q201 81 197 59 Q184 -22 182 -18 Q165 -16 133 17 Q130 21 131 23 Q133 24 137 23 Q163 15 164 20 Q177 71 183 124 Q185 131 178 130 Q162 126 130 121 Q113 45 65 2 Q38 -26 8 -5 Q85 25 110 116 Q85 111 65 105 Q59 104 55 109 Q50 114 44 120 Q42 122 42 123 Q42 124 45 124 Q60 124 114 134 Q114 138 115 141 Q120 174 114 200 Z" /><glyph glyph-name="uni529F" unicode="&#x529f;" d="M154 202 Q173 196 186 195 Q179 183 175 156 Q174 152 173 144 Q171 134 170 130 Q187 133 200 139 Q215 127 240 122 Q230 111 227 97 Q220 72 212 29 Q203 -19 198 -16 Q186 -14 156 17 Q154 19 154 20 Q155 21 159 21 Q189 16 188 25 Q200 67 208 116 Q208 123 203 122 Q189 119 198 121 Q189 119 166 114 Q148 32 112 -4 Q88 -24 62 -12 Q125 23 148 110 Q134 107 125 105 Q116 109 108 121 Q120 122 152 126 Q153 129 154 136 Q155 142 155 145 Q161 183 154 202 ZM120 140 Q112 139 94 135 Q75 132 67 130 Q77 127 86 126 Q83 114 83 71 Q100 77 115 82 Q118 83 122 81 Q124 79 121 78 Q66 48 35 26 Q28 40 16 51 Q35 54 67 66 Q68 118 62 129 Q60 129 55 128 Q37 125 37 126 Q31 128 23 137 Q41 139 78 148 Q98 153 105 154 Q114 150 120 140 Z" /><glyph glyph-name="uni52A0" unicode="&#x52a0;" d="M74 198 Q93 191 105 191 Q98 183 94 152 Q93 143 91 135 Q102 138 109 142 Q125 128 149 125 Q149 124 147 123 Q146 121 145 120 Q150 120 160 118 Q163 117 165 117 Q203 120 209 131 Q222 119 251 113 Q237 106 222 53 Q227 48 233 39 Q232 39 230 39 Q205 38 172 34 Q172 33 172 29 Q173 16 171 16 Q162 21 154 28 Q157 82 144 119 Q136 107 135 99 Q131 78 125 41 Q117 -13 112 -9 Q101 -8 70 25 Q68 27 68 28 Q69 29 72 28 Q104 24 101 33 Q110 69 116 118 Q118 126 112 124 Q107 123 94 120 Q90 119 88 119 Q75 45 46 14 Q25 -5 1 7 Q55 42 70 115 Q55 112 41 108 Q29 116 24 125 Q48 125 73 130 Q74 132 74 136 Q75 140 75 142 Q81 182 74 198 ZM167 105 Q168 97 170 74 Q171 56 172 47 Q176 48 184 49 Q192 50 205 52 Q206 60 208 75 Q212 110 211 110 Q210 112 167 105 Z" /><glyph glyph-name="uni5316" unicode="&#x5316;" d="M193 164 Q201 152 214 145 Q205 139 197 131 Q170 99 146 81 Q146 75 146 63 Q145 50 145 43 Q144 12 174 13 Q217 12 217 27 Q220 40 222 59 Q223 63 225 63 Q227 63 228 59 Q240 21 242 5 Q244 0 236 -1 Q204 -7 168 -5 Q127 -6 130 44 Q131 56 131 70 Q131 70 129 69 Q106 55 86 70 Q111 78 132 92 Q132 104 133 127 Q133 147 133 157 Q133 186 130 193 Q139 186 157 182 Q150 167 147 104 Q167 121 180 138 Q190 150 193 164 ZM79 193 Q88 184 105 178 Q97 173 92 161 Q90 156 85 147 Q76 128 71 120 Q79 117 86 117 Q81 103 81 89 Q81 77 81 46 Q81 -17 78 -15 Q65 -11 57 0 Q57 1 58 5 Q61 11 62 17 Q67 42 65 99 Q65 103 65 109 Q54 92 42 80 Q24 60 2 73 Q50 102 73 161 Q80 180 79 193 Z" /><glyph glyph-name="uni5341" unicode="&#x5341;" d="M144 193 Q138 169 138 140 L138 116 Q174 121 217 125 Q225 127 228 121 Q235 113 238 105 Q240 102 239 101 Q238 99 232 100 Q189 101 139 97 Q139 55 140 28 Q140 20 140 23 Q142 -33 140 -30 Q127 -25 112 -11 Q117 3 119 36 Q119 45 119 63 Q120 84 120 94 Q75 90 37 81 Q28 87 19 98 Q18 100 18 100 Q19 101 22 101 Q42 102 90 109 Q109 112 119 113 Q119 131 119 148 Q118 182 110 200 Q126 193 144 193 Z" /><glyph glyph-name="uni535A" unicode="&#x535a;" d="M183 101 Q185 110 189 130 Q192 143 193 148 Q193 151 190 151 Q184 150 171 148 Q162 146 157 145 L157 133 Q163 135 168 135 Q170 136 173 133 Q176 130 178 126 Q176 126 171 125 Q163 124 157 123 L157 112 Q163 112 168 114 Q172 115 175 112 Q178 109 179 105 Q177 105 172 104 Q163 102 157 101 L157 78 Q157 75 156 74 Q154 74 152 76 Q148 79 140 86 Q142 90 142 98 Q140 98 138 97 Q136 97 136 97 Q130 98 123 104 Q124 104 126 104 Q132 105 143 108 Q143 117 143 120 Q141 120 138 119 Q136 118 133 118 Q129 119 121 125 Q132 127 143 130 L143 141 Q131 139 119 136 L116 139 Q120 104 120 86 Q121 77 118 76 Q115 77 105 86 Q107 128 93 150 Q100 150 112 147 Q118 147 134 150 Q140 151 143 152 L143 167 Q134 165 123 164 Q117 166 111 173 Q119 174 143 180 Q143 204 137 215 Q150 211 163 210 Q158 199 157 184 Q161 185 167 186 Q170 187 179 189 Q185 190 187 188 Q191 184 193 182 Q194 180 194 178 Q193 177 191 177 Q190 177 187 176 Q174 174 157 170 Q157 164 157 155 Q179 160 190 165 Q204 154 224 148 Q212 139 204 105 Q199 90 197 88 Q189 92 183 101 ZM170 92 Q183 87 195 87 Q194 81 192 73 Q216 78 231 79 Q237 80 240 76 Q245 70 247 66 Q249 63 244 62 Q231 62 191 58 Q191 29 191 -2 Q192 -29 187 -33 Q174 -31 146 -9 Q143 -7 144 -5 Q144 -3 148 -4 Q151 -4 158 -5 Q164 -5 166 -5 Q173 -5 173 1 Q175 27 175 55 Q125 49 95 41 Q88 39 84 43 Q78 48 74 54 Q121 61 174 69 Q173 82 170 92 ZM91 132 Q94 129 99 124 Q100 120 97 119 Q90 118 77 115 Q70 113 67 112 Q67 89 67 18 Q67 -22 63 -20 Q54 -15 44 0 Q52 29 52 109 Q31 103 20 102 Q12 104 5 113 Q21 116 52 125 Q52 163 45 193 Q57 188 72 188 Q67 169 67 129 Q71 130 79 132 Q83 133 85 133 Q89 133 91 132 ZM125 45 Q147 35 150 33 Q150 24 146 14 Q145 11 143 11 Q142 11 140 13 Q130 23 122 41 Q121 44 122 45 Q123 46 125 45 ZM192 207 Q210 202 216 199 Q219 196 217 182 Q217 179 215 178 Q214 177 211 179 Q198 191 189 203 Q187 205 188 206 Q189 208 192 207 Z" /><glyph glyph-name="uni53D1" unicode="&#x53d1;" d="M196 11 Q213 8 245 -4 Q254 -7 254 -10 Q254 -14 246 -14 Q215 -19 192 -17 Q179 -17 166 -8 Q148 10 139 20 Q127 6 111 -5 Q97 -14 86 -14 Q70 -14 54 0 Q99 4 125 34 Q109 51 90 62 Q76 36 57 15 Q43 1 25 1 Q14 1 3 4 Q61 31 97 116 Q71 110 53 103 Q48 116 40 123 Q57 135 59 165 Q60 170 57 177 Q67 170 87 166 Q81 158 77 146 Q73 134 68 125 Q72 126 79 127 Q94 131 102 132 Q114 172 114 189 Q114 191 114 195 Q113 199 113 201 Q124 195 143 191 Q135 184 127 152 Q124 143 123 136 Q126 137 133 138 Q151 142 178 147 Q184 149 187 144 Q188 143 190 140 Q194 135 195 133 Q197 130 195 128 Q194 127 190 127 Q160 128 117 120 Q116 117 113 110 Q108 98 105 92 Q134 97 156 107 Q169 94 183 92 Q173 84 163 61 Q161 57 157 50 Q152 40 149 35 Q175 17 196 11 ZM106 77 L101 82 Q100 80 97 75 Q95 71 93 68 Q99 70 104 69 Q113 65 136 47 Q148 65 156 91 Q126 82 106 77 ZM168 185 Q194 181 202 176 Q204 171 204 156 Q203 152 202 151 Q200 150 198 152 Q182 162 166 180 Q164 183 164 184 Q165 186 168 185 Z" /><glyph glyph-name="uni53EF" unicode="&#x53ef;" d="M185 156 Q179 145 179 105 Q179 85 182 16 Q182 19 182 10 Q182 -22 178 -24 Q163 -20 129 6 Q124 10 124 12 Q125 14 131 14 Q166 9 162 17 Q164 65 162 111 Q162 141 156 158 Q103 153 44 140 Q39 138 23 152 Q21 154 22 155 Q22 156 26 157 Q50 158 128 170 Q197 181 226 184 Q232 184 235 180 Q240 174 243 168 Q245 165 244 163 Q243 161 240 161 Q205 163 164 158 Q178 156 185 156 ZM132 65 Q116 64 82 59 Q83 52 83 44 Q83 42 82 42 Q81 42 80 43 Q79 44 76 45 Q68 50 66 52 Q68 97 54 122 Q65 120 75 118 Q100 121 110 132 Q131 117 150 113 Q132 100 124 76 Q129 71 132 65 ZM78 106 Q78 101 79 88 Q81 77 81 71 Q85 72 92 73 Q104 76 110 77 Q113 100 115 111 Q115 113 115 113 Q114 114 112 113 Q105 112 78 106 Z" /><glyph glyph-name="uni53F0" unicode="&#x53f0;" d="M165 76 Q178 61 207 54 Q194 49 178 12 Q183 7 189 -3 Q146 -3 91 -9 Q93 -20 91 -22 Q85 -21 75 -13 Q70 43 57 63 Q69 62 83 60 Q144 65 165 76 ZM167 146 Q170 144 176 141 Q201 128 208 121 Q212 118 209 98 Q208 91 206 90 Q204 89 201 93 Q193 101 185 111 Q93 98 52 82 Q50 95 42 105 Q61 113 72 124 Q107 165 116 205 Q132 191 146 187 Q134 180 125 166 Q101 131 79 111 Q83 111 91 112 Q152 119 177 121 Q175 125 170 131 Q165 138 163 142 Q160 146 161 147 Q162 149 167 146 ZM85 47 Q86 32 90 3 Q98 4 117 6 Q146 10 158 12 Q166 52 165 56 Q164 57 122 51 Q97 48 85 47 Z" /><glyph glyph-name="uni53F7" unicode="&#x53f7;" d="M77 65 Q95 75 99 99 Q50 92 30 87 Q23 91 16 100 Q15 101 15 102 Q15 103 17 103 Q38 105 108 115 Q185 125 212 128 Q219 130 224 124 Q229 120 232 113 Q234 111 233 109 Q232 108 228 108 Q198 111 104 100 Q114 93 124 91 Q116 87 106 73 Q101 66 98 64 Q131 71 143 79 Q160 67 183 66 Q174 59 161 5 Q153 -31 149 -31 Q129 -21 108 2 Q106 5 106 6 Q107 7 111 6 Q138 -2 138 8 Q141 15 148 50 Q149 53 149 54 Q150 59 149 61 Q147 63 141 62 Q113 59 82 45 Q82 55 77 65 ZM173 143 Q148 141 100 133 Q102 122 100 123 Q89 129 84 133 Q82 170 68 189 Q75 187 86 185 Q88 185 89 185 Q132 191 148 201 Q165 190 184 187 Q170 178 162 155 Q168 151 173 143 ZM91 173 Q94 164 98 144 L145 152 L149 180 Q150 183 149 184 Q148 185 146 184 Q143 183 134 182 Q100 175 91 173 Z" /><glyph glyph-name="uni5408" unicode="&#x5408;" d="M147 69 Q159 58 187 49 Q176 43 159 13 Q165 10 169 1 Q107 -5 89 -7 Q92 -17 90 -22 Q82 -18 75 -12 Q69 35 56 57 Q60 57 67 56 Q73 55 77 54 Q116 57 147 69 ZM103 206 Q116 199 129 197 Q123 190 119 180 Q127 174 149 154 Q186 120 201 113 Q229 101 246 90 Q253 86 253 82 Q253 79 246 78 Q203 77 196 82 Q184 91 149 132 Q122 164 114 170 Q82 111 53 79 Q31 55 3 69 Q51 92 93 167 Q102 187 103 206 ZM149 52 Q142 53 81 41 Q83 28 87 4 Q110 8 142 12 Q151 49 149 52 ZM145 113 Q149 115 152 110 Q155 107 158 103 Q160 101 159 101 Q159 100 156 99 Q120 92 90 87 Q85 86 80 88 Q72 93 69 97 Q82 98 111 105 Q133 111 145 113 Z" /><glyph glyph-name="uni540C" unicode="&#x540c;" d="M178 191 Q194 181 217 180 Q205 165 213 27 Q216 -16 209 -20 Q191 -18 156 12 Q152 16 153 18 Q154 20 158 19 Q190 15 188 23 Q189 53 188 105 Q187 150 185 169 Q185 172 182 172 Q124 165 69 155 Q66 155 60 161 Q60 149 60 118 Q61 45 60 28 Q60 -15 59 -15 Q47 -10 35 5 Q45 39 44 138 Q44 166 37 178 Q52 173 60 169 Q154 179 178 191 ZM159 52 Q148 51 152 51 Q114 48 102 46 Q102 34 101 34 Q93 37 88 44 Q86 81 77 100 Q82 100 92 98 Q95 97 97 97 Q134 101 141 109 Q149 101 172 94 Q160 85 153 63 Q155 60 158 55 Q158 53 159 52 ZM99 86 L101 57 L137 63 L141 93 Q134 92 112 88 Q103 87 99 86 ZM153 143 Q157 140 160 135 Q162 133 161 132 Q161 131 159 131 Q152 130 135 127 Q89 119 88 121 Q81 125 76 131 Q83 131 117 138 Q139 143 146 144 Q150 145 153 143 Z" /><glyph glyph-name="uni540E" unicode="&#x540e;" d="M201 8 Q196 7 181 6 Q125 0 107 -2 Q109 -13 107 -16 Q103 -14 91 -5 Q93 44 77 69 Q78 69 79 69 Q88 68 99 65 Q158 71 174 82 Q194 68 218 65 Q201 53 190 22 Q196 17 201 8 ZM215 133 Q218 134 221 130 Q228 123 230 119 Q231 117 231 116 Q230 115 228 115 Q174 111 98 97 Q93 95 81 104 Q73 46 46 7 Q28 -17 3 -3 Q54 27 66 113 Q71 146 63 164 Q67 163 75 160 Q81 157 85 156 Q144 170 165 196 Q174 183 193 169 Q175 167 131 155 Q97 146 86 145 Q85 126 82 109 Q108 112 158 122 Q196 130 215 133 ZM101 51 Q104 30 102 46 Q104 30 106 11 Q111 12 122 13 Q164 19 171 21 Q178 56 176 62 Q171 63 101 51 Z" /><glyph glyph-name="uni5448" unicode="&#x5448;" d="M172 65 Q178 60 183 54 Q184 51 181 50 Q162 49 136 45 L136 14 Q151 15 182 18 Q210 20 223 21 Q228 22 232 17 Q238 9 240 3 Q242 -4 236 -3 Q158 7 48 -12 Q43 -14 38 -11 Q32 -8 25 -1 Q22 4 28 5 Q48 5 112 11 Q117 12 120 12 Q121 19 120 33 Q120 39 120 42 Q102 39 85 38 Q77 40 68 51 Q84 51 119 58 Q120 76 114 87 Q112 87 107 86 Q78 82 76 83 Q70 84 58 95 Q82 96 142 107 Q160 110 179 113 Q184 113 185 111 Q192 106 194 100 Q197 96 193 95 Q180 94 153 91 Q130 89 119 88 Q129 85 142 84 Q138 76 136 61 Q151 64 166 66 Q169 67 172 65 ZM158 195 Q173 181 198 175 Q179 161 170 145 Q174 142 179 135 Q180 133 181 132 Q138 129 98 123 Q100 115 97 114 Q92 114 83 121 Q72 168 64 182 Q70 182 81 180 Q85 179 86 179 Q135 185 158 195 ZM90 167 Q91 163 92 156 Q95 140 96 134 Q134 142 152 144 Q157 162 160 176 Q160 178 157 178 Q132 175 90 167 Z" /><glyph glyph-name="uni5458" unicode="&#x5458;" d="M91 105 L85 112 Q85 87 83 33 Q83 30 82 29 Q81 29 77 31 Q73 34 62 45 Q74 81 63 125 Q72 123 84 118 Q142 125 166 137 Q175 128 199 124 Q191 115 191 58 Q191 39 191 30 Q191 27 190 26 Q188 26 184 29 Q181 32 174 39 Q169 45 168 46 Q170 51 170 59 Q172 72 172 118 Q173 121 167 121 Q158 120 114 110 Q97 106 91 105 ZM180 151 Q147 151 99 142 Q101 133 98 133 Q93 135 84 142 Q82 174 70 189 Q74 189 83 188 Q91 187 93 187 Q143 193 158 203 Q170 191 190 188 Q179 182 168 163 Q169 162 172 159 Q178 154 180 151 ZM115 105 Q130 99 142 98 Q138 92 133 72 Q122 0 74 -19 Q48 -28 33 -11 Q105 2 118 73 Q121 96 115 105 ZM138 31 Q177 19 195 8 Q198 4 200 -21 Q200 -26 198 -27 Q196 -27 191 -24 Q165 -3 134 27 Q131 30 132 31 Q133 32 138 31 ZM158 187 Q153 186 137 184 Q105 178 94 177 L98 152 Q107 154 127 158 Q148 161 154 163 Q156 169 158 185 Q158 186 158 187 Z" /><glyph glyph-name="uni54C1" unicode="&#x54c1;" d="M151 185 Q167 171 188 166 Q175 157 162 129 Q166 126 172 117 Q146 115 102 110 Q102 100 101 99 Q93 101 86 107 Q78 160 67 171 Q80 171 92 169 Q139 176 151 185 ZM202 89 Q217 76 235 71 Q224 65 210 31 Q215 27 220 17 Q187 15 157 11 Q157 -1 155 -1 Q148 2 141 10 Q140 57 127 79 Q131 79 139 78 Q147 77 150 76 Q183 78 202 89 ZM86 79 Q101 67 118 64 Q108 53 100 26 Q102 25 107 17 Q109 14 110 13 Q89 12 50 7 Q51 -5 48 -6 Q41 -3 35 2 Q30 52 19 68 Q25 68 38 66 Q41 65 42 65 Q73 71 86 79 ZM146 165 Q124 160 94 156 Q98 141 101 122 Q104 123 112 124 Q137 128 144 129 Q148 152 150 162 Q151 164 150 165 Q150 165 146 165 ZM197 70 Q192 69 173 66 Q157 64 152 63 Q154 53 156 24 Q161 25 173 27 Q189 29 195 30 Q196 45 200 67 Q201 69 200 70 Q199 71 197 70 ZM86 63 Q81 62 72 60 Q54 55 44 54 Q44 50 46 40 Q47 26 48 19 Q72 25 86 26 Q87 35 88 48 Q89 57 89 61 Q90 64 86 63 Z" /><glyph glyph-name="uni5531" unicode="&#x5531;" d="M195 98 Q206 86 228 81 Q219 71 218 57 Q218 51 217 40 Q217 30 217 26 Q217 -10 213 -12 Q202 -8 193 5 Q160 5 120 -1 Q120 -13 117 -13 Q108 -7 102 2 Q103 16 100 50 Q98 72 92 84 Q98 84 111 81 Q112 81 113 81 Q172 87 195 98 ZM186 104 Q181 106 176 112 Q157 112 133 108 Q133 99 131 99 Q124 102 117 109 Q110 167 100 180 Q113 180 120 178 Q167 184 184 194 Q197 182 219 177 Q208 171 195 126 Q190 104 186 104 ZM88 87 Q66 87 41 80 Q41 78 42 74 Q42 70 42 68 Q42 67 41 66 Q41 66 39 67 Q35 68 29 73 Q27 75 26 76 Q26 96 20 121 Q17 137 11 146 Q14 146 20 145 Q27 145 29 144 Q56 147 66 157 Q80 147 96 146 Q83 134 78 98 Q83 93 88 87 ZM119 35 Q119 31 120 23 Q120 15 120 11 Q141 15 184 19 Q189 20 191 20 Q192 19 194 17 Q195 16 195 16 Q196 29 197 58 Q198 71 198 78 Q198 81 193 81 Q189 80 180 79 Q141 73 122 69 L117 73 Q117 69 117 61 Q118 52 118 47 Q135 49 167 55 Q172 56 175 57 Q180 57 182 54 Q185 51 188 44 Q179 43 160 40 Q130 37 119 35 ZM124 168 Q126 159 127 147 Q140 151 162 155 Q164 156 165 156 Q169 157 172 154 Q177 150 178 145 Q154 142 129 137 Q129 136 129 134 Q131 127 131 118 Q136 119 148 121 Q168 124 174 125 Q175 124 176 123 Q180 139 187 172 Q188 175 188 177 Q188 180 185 180 Q158 174 124 168 ZM34 134 Q36 126 39 103 Q40 95 40 91 Q45 92 56 96 Q61 97 64 98 Q66 122 66 138 Q67 142 63 141 Q54 139 34 134 Z" /><glyph glyph-name="uni5546" unicode="&#x5546;" d="M217 186 Q221 186 223 183 Q229 176 232 172 Q234 167 230 167 Q199 168 149 162 Q157 156 169 151 Q164 148 154 138 Q144 127 137 122 Q175 129 177 133 Q192 122 214 119 Q208 112 206 85 Q206 65 208 11 Q209 -29 205 -31 Q187 -28 157 -3 Q153 1 154 3 Q155 5 160 4 Q186 -1 184 8 Q185 20 184 73 Q183 103 183 113 Q183 116 180 116 Q160 114 90 104 Q82 103 78 102 Q75 102 70 107 Q70 66 70 13 Q70 -16 67 -18 Q56 -11 46 3 Q53 13 54 60 Q54 106 48 119 Q54 118 61 115 Q65 114 68 113 Q74 114 87 115 Q113 118 126 120 Q142 144 145 162 Q78 154 40 147 Q36 145 33 148 Q31 150 26 155 Q22 160 21 161 Q61 165 144 176 Q197 184 217 186 ZM141 73 Q148 64 168 58 Q155 50 150 34 Q157 27 158 25 Q149 24 121 20 Q113 19 111 19 Q111 7 109 7 Q106 9 100 15 Q98 17 98 17 Q96 49 88 66 Q89 66 92 65 Q102 64 106 62 Q130 66 141 73 ZM110 29 L136 34 Q141 55 140 59 Q138 59 134 58 Q113 54 107 52 Q108 46 109 37 Q110 31 110 29 ZM105 205 Q126 205 138 200 Q140 200 140 184 Q139 178 138 177 Q136 176 132 179 Q115 189 103 202 Q102 204 102 205 Q102 205 105 205 ZM77 61 L74 64 Q95 87 94 104 Q105 96 118 93 Q112 90 100 79 Q86 66 77 61 ZM135 103 Q155 97 165 92 Q167 87 164 74 Q163 69 158 72 Q151 78 135 96 Q132 99 131 100 Q130 102 131 103 Q132 104 135 103 ZM86 150 Q109 144 110 141 Q111 138 109 126 Q106 119 102 123 Q96 130 86 144 Q87 142 84 147 Q83 149 83 150 Q84 151 86 150 Z" /><glyph glyph-name="uni5668" unicode="&#x5668;" d="M175 122 Q178 122 181 119 Q183 117 186 114 Q188 111 189 110 Q192 104 187 104 Q161 104 127 101 Q134 97 146 91 Q166 79 183 76 Q210 69 228 61 Q232 59 232 57 Q232 54 228 54 Q209 51 186 51 Q173 52 167 56 Q159 61 143 74 Q126 89 114 96 Q92 54 65 42 Q42 34 28 49 Q70 57 97 97 Q78 94 61 91 Q57 90 54 92 Q49 96 44 103 Q67 105 104 111 Q109 127 106 140 Q117 134 130 132 Q126 127 121 114 Q127 115 137 116 Q164 121 175 122 ZM186 50 Q204 36 220 33 Q209 27 200 8 Q202 6 206 1 Q210 -3 211 -4 Q193 -5 161 -9 Q155 -10 153 -10 Q153 -21 151 -20 Q143 -16 139 -11 Q137 28 125 41 Q129 40 138 39 Q143 37 146 37 Q180 42 186 50 ZM116 -10 Q92 -12 65 -16 Q66 -28 63 -28 Q62 -27 57 -24 Q53 -20 51 -19 Q46 20 36 33 Q39 33 47 31 Q54 30 57 29 Q92 35 95 42 Q107 31 126 28 Q114 19 106 -1 Q110 -3 114 -8 Q116 -10 116 -10 ZM114 141 Q87 139 67 134 Q67 123 66 123 Q63 124 57 129 Q54 131 53 132 Q50 165 37 179 Q46 179 58 177 Q88 182 93 190 Q105 181 124 176 Q112 168 104 151 Q111 146 114 141 ZM179 199 Q191 189 212 184 Q199 176 193 161 Q199 156 204 151 Q188 150 160 146 Q154 145 151 145 Q151 135 149 135 Q148 136 145 138 Q138 143 137 144 Q137 175 124 190 Q125 190 126 190 Q139 188 145 186 Q176 191 179 199 ZM150 27 Q150 18 152 0 L185 7 Q185 10 186 18 Q188 31 188 33 Q187 33 182 32 Q159 28 150 27 ZM60 19 Q61 15 62 6 Q64 -3 64 -7 L94 -1 Q94 8 97 26 Q75 23 60 19 ZM61 167 Q63 160 65 147 Q65 145 65 144 L92 151 Q93 156 95 168 Q96 173 96 175 Q91 174 76 170 Q66 168 61 167 ZM148 177 Q148 174 149 168 Q150 159 150 155 L179 160 Q179 164 181 172 Q182 181 182 183 Q180 183 173 181 Q154 178 148 177 ZM179 140 Q186 139 202 135 Q205 134 206 134 Q209 132 209 118 Q208 112 207 111 Q205 110 202 113 Q190 121 177 136 Q174 138 174 140 Q175 141 179 140 Z" /><glyph glyph-name="uni56DB" unicode="&#x56db;" d="M199 164 Q215 145 237 139 Q224 123 210 53 Q204 20 201 20 Q197 21 187 36 Q124 34 65 27 Q65 16 62 15 Q54 20 46 29 Q43 105 26 151 Q39 147 54 142 Q188 154 199 164 ZM194 143 L138 138 Q144 134 155 133 Q147 123 146 102 Q145 93 154 92 Q167 93 171 97 Q175 100 178 96 Q182 92 186 84 Q187 83 187 82 Q184 79 155 77 Q130 77 132 103 Q134 123 132 137 L98 133 Q105 129 114 127 Q110 123 108 108 Q105 93 101 84 Q88 54 61 65 Q98 85 92 132 L54 127 Q60 78 62 41 Q98 46 175 54 Q180 54 185 47 Q189 66 195 112 Q198 129 199 137 Q200 143 194 143 Z" /><glyph glyph-name="uni56E2" unicode="&#x56e2;" d="M209 -16 Q202 -15 186 7 Q137 9 60 -1 Q60 -13 59 -14 Q56 -13 39 3 Q46 40 46 107 Q44 167 36 179 Q53 175 60 173 Q147 179 183 193 Q197 180 218 179 Q208 161 213 54 Q214 36 214 27 Q214 -13 209 -16 ZM65 159 L61 163 L61 12 Q70 13 89 15 Q158 23 180 24 Q186 26 188 21 Q189 19 189 19 Q190 46 189 90 Q189 139 188 169 Q188 175 183 174 Q126 169 65 159 ZM125 166 Q134 162 150 162 Q147 154 146 131 Q156 134 165 135 Q168 136 171 133 Q177 127 181 121 Q175 120 164 119 Q152 117 146 116 Q146 84 148 65 Q150 30 145 24 Q130 27 106 48 Q104 51 104 52 Q105 53 109 52 Q127 52 129 55 Q131 65 130 99 Q116 76 98 56 Q82 40 62 53 Q90 65 123 112 Q114 111 99 109 Q87 107 83 107 Q77 110 70 118 Q85 120 122 126 Q127 127 130 128 Q130 134 130 139 Q129 157 125 166 Z" /><glyph glyph-name="uni56FD" unicode="&#x56fd;" d="M209 -8 Q200 -3 189 16 Q115 15 65 6 Q65 -6 63 -8 Q53 -2 46 9 Q51 52 48 111 Q45 166 38 176 Q47 173 59 171 Q155 180 186 191 Q201 181 217 178 Q212 172 211 140 Q211 115 213 36 Q214 -2 209 -8 ZM184 31 Q190 31 192 27 Q192 27 192 26 Q193 74 192 127 Q191 173 189 175 Q153 174 68 159 L62 164 Q63 124 65 30 L65 19 Q83 21 125 25 Q166 30 184 31 ZM180 64 Q183 62 187 55 Q188 53 188 52 Q187 51 185 51 Q144 52 79 40 Q78 42 74 46 Q70 49 68 51 Q83 54 110 57 Q115 58 117 58 Q118 68 118 93 Q113 93 105 92 Q98 91 97 91 Q90 93 85 100 Q96 101 114 104 Q112 104 118 105 Q118 107 118 110 Q117 114 117 115 Q117 121 114 132 Q114 133 114 133 Q112 133 108 132 Q93 129 92 130 Q89 130 82 136 Q80 137 79 138 Q108 143 144 153 Q150 154 153 155 Q157 157 159 154 Q164 151 167 147 Q169 146 169 145 Q168 144 166 144 Q163 143 158 142 Q131 136 118 134 Q120 134 126 133 Q131 133 133 132 Q132 130 132 120 Q131 113 131 108 Q140 111 150 112 Q154 114 156 111 Q158 110 160 108 Q162 106 163 105 Q164 103 164 102 Q163 101 161 101 Q146 99 131 96 Q131 91 131 79 Q132 67 132 61 Q134 61 137 62 Q151 64 170 66 Q177 67 180 64 ZM147 92 Q150 91 155 90 Q164 88 169 87 Q170 88 170 85 Q170 77 169 72 Q169 69 167 71 Q161 74 146 89 Q144 91 145 92 Q145 92 147 92 Z" /><glyph glyph-name="uni571F" unicode="&#x571f;" d="M183 123 Q188 123 191 119 Q192 118 193 116 Q195 113 198 110 Q200 106 200 105 Q199 103 196 103 Q169 103 138 98 Q138 65 138 31 Q197 39 223 40 Q229 40 232 37 Q235 34 239 27 Q240 24 241 23 Q243 18 242 17 Q241 15 237 16 Q166 23 39 1 Q36 0 21 15 Q19 17 19 18 Q19 19 23 19 Q39 20 85 25 Q106 28 117 29 Q119 69 119 95 Q97 92 77 89 Q72 87 68 92 Q62 98 58 103 Q87 107 119 113 Q118 134 118 151 Q118 152 118 156 Q116 187 110 196 Q124 190 145 189 Q139 178 138 148 Q137 136 137 116 Q161 120 183 123 Z" /><glyph glyph-name="uni5728" unicode="&#x5728;" d="M197 90 Q199 88 202 84 Q205 81 206 80 Q209 76 204 75 Q181 72 163 69 Q162 47 162 26 Q196 32 222 34 Q227 34 229 31 Q235 24 238 18 Q240 15 239 14 Q239 13 236 13 Q189 17 105 4 Q101 2 98 5 Q92 11 88 16 L88 8 Q88 -32 87 -30 Q79 -29 65 -15 Q72 -2 72 16 Q72 47 73 64 Q58 47 49 40 Q30 25 7 37 Q40 53 70 91 Q69 97 67 102 Q71 99 75 98 Q86 114 94 132 Q83 130 71 127 Q65 126 62 129 Q55 135 50 140 Q72 142 102 148 Q103 152 106 159 Q110 170 112 176 Q116 194 116 209 Q129 201 142 198 Q135 189 129 174 Q128 172 127 168 Q123 157 120 152 Q133 154 160 159 Q181 163 191 165 Q195 166 198 163 Q205 156 207 153 Q209 150 209 149 Q208 147 205 147 Q165 145 114 136 Q102 110 90 89 Q89 81 89 72 Q88 59 88 16 Q97 16 125 20 Q139 23 147 24 Q147 43 147 67 Q142 66 134 65 Q122 63 121 63 Q113 66 105 73 Q122 75 147 81 L147 84 Q146 119 140 131 Q154 126 168 126 Q164 115 163 91 Q163 88 163 84 Q178 89 192 90 Q195 92 197 90 Z" /><glyph glyph-name="uni578B" unicode="&#x578b;" d="M182 53 Q188 47 189 42 Q191 40 188 40 Q187 40 185 40 Q155 38 140 36 Q140 32 140 24 Q139 13 139 6 Q175 10 213 13 Q223 14 224 9 Q229 4 231 -2 Q233 -5 232 -7 Q231 -8 227 -8 Q195 -5 138 -9 Q73 -13 47 -20 Q42 -16 33 -7 Q31 -6 31 -4 Q32 -3 34 -3 Q46 -3 93 2 Q113 4 124 5 Q124 19 124 35 Q122 35 117 34 Q104 32 89 30 Q86 28 82 32 Q79 35 76 38 Q74 41 73 42 Q98 44 124 48 Q124 69 120 78 Q118 69 117 69 Q103 79 102 86 Q106 93 106 123 Q103 123 95 122 Q87 121 83 120 Q77 82 68 69 Q54 51 32 60 Q62 76 68 117 Q60 115 47 113 Q39 111 35 110 Q30 108 26 112 Q20 117 15 122 Q40 124 70 130 Q71 132 71 135 Q73 149 70 161 Q68 161 65 160 Q58 159 56 160 Q50 162 43 169 Q71 173 109 181 Q122 184 129 186 Q133 187 136 185 Q140 180 143 177 Q144 174 143 174 Q143 173 141 173 Q123 170 106 167 Q115 165 124 165 Q120 156 120 138 Q131 140 141 141 Q145 142 148 139 Q151 136 153 132 Q155 130 154 128 Q153 127 150 127 Q135 127 120 125 L120 87 Q120 82 120 79 Q133 74 145 72 Q142 66 141 50 Q147 51 160 53 Q171 54 177 55 Q180 56 182 53 ZM190 198 Q199 194 215 194 Q211 184 211 163 Q211 127 213 90 Q215 56 210 57 Q196 61 173 78 Q171 80 171 81 Q172 82 175 82 Q193 82 195 86 Q198 91 196 159 Q194 186 190 198 ZM154 169 Q162 165 175 165 Q172 155 172 140 Q172 127 172 114 Q172 91 170 92 Q166 94 155 102 Q159 112 159 144 Q157 163 154 169 ZM91 158 Q87 152 85 133 Q85 133 84 132 Q96 133 106 137 Q106 155 102 166 Q95 165 83 163 Q76 162 73 162 Q81 158 91 158 Z" /><glyph glyph-name="uni57FA" unicode="&#x57fa;" d="M102 68 Q95 64 87 52 Q69 28 50 13 Q30 0 12 13 Q46 25 71 57 Q78 66 81 73 Q76 72 65 71 Q56 69 52 69 Q48 67 46 70 Q41 74 34 81 Q46 81 85 86 Q85 114 83 144 Q83 149 83 153 Q82 153 79 152 Q74 151 69 151 Q65 149 60 152 Q52 157 49 161 Q50 161 52 161 Q64 162 82 165 Q81 186 76 199 Q90 195 102 195 Q99 186 99 167 Q120 170 105 168 Q120 170 144 174 Q143 196 138 209 Q149 205 164 205 Q163 195 161 176 Q164 177 171 178 Q177 179 180 179 Q184 181 188 176 Q190 173 193 169 Q195 166 194 166 Q194 165 190 165 Q188 165 183 164 Q169 163 160 161 Q159 144 159 95 Q171 97 194 99 Q196 99 197 99 Q201 99 204 97 Q204 97 205 96 Q206 94 211 88 Q213 85 214 84 Q215 81 214 80 Q214 79 211 79 Q189 81 159 79 Q161 77 166 73 Q192 51 215 44 Q240 34 250 27 Q255 24 255 22 Q254 19 249 19 Q225 18 210 20 Q199 22 190 30 Q181 38 167 53 Q150 71 142 78 Q107 76 91 74 Q96 71 102 68 ZM183 3 Q189 3 190 0 Q194 -4 197 -10 Q199 -15 195 -15 Q120 -13 67 -24 Q61 -26 58 -22 Q52 -17 48 -11 Q63 -11 113 -5 L113 21 Q102 19 92 19 Q89 20 80 29 Q97 31 113 34 Q113 57 108 68 Q120 63 133 63 Q129 54 129 37 Q138 39 149 40 Q154 40 155 39 Q158 36 162 30 Q164 27 161 27 Q155 26 143 25 Q134 23 129 23 Q129 19 129 11 Q128 2 128 -3 Q138 -2 156 0 Q176 2 183 3 ZM144 159 Q120 157 98 154 Q98 148 98 138 Q103 139 114 142 Q125 144 130 145 Q131 145 136 134 Q137 132 137 132 Q129 132 111 130 Q102 129 98 129 L98 112 Q100 112 106 113 Q123 117 130 119 Q131 119 136 108 Q137 106 137 106 Q135 106 132 106 Q110 104 98 102 L98 87 Q121 90 145 93 Q145 124 145 154 Q145 155 144 157 Q144 159 144 159 Z" /><glyph glyph-name="uni5907" unicode="&#x5907;" d="M200 94 Q227 88 245 81 Q252 78 252 74 Q252 71 244 70 Q222 67 206 67 Q186 67 177 74 Q149 91 122 111 Q99 87 66 68 Q68 68 73 67 Q75 67 76 67 Q117 69 152 83 Q164 70 191 62 Q179 58 169 9 Q169 7 168 5 Q162 -24 157 -23 Q153 -19 146 -7 Q120 -7 84 -11 Q86 -23 83 -24 Q73 -21 67 -10 Q63 40 56 62 Q39 53 27 52 Q10 53 2 65 Q63 79 107 121 Q93 131 78 137 Q71 127 62 118 Q52 108 40 108 Q35 108 25 112 Q81 147 93 209 Q104 202 117 197 Q113 193 106 184 Q107 185 105 182 Q104 180 103 176 Q101 172 100 169 Q132 175 144 184 Q158 175 176 171 Q160 159 149 143 Q145 137 135 126 Q134 124 133 123 Q155 111 176 102 Q181 100 194 96 Q198 95 200 94 ZM155 67 Q145 66 125 62 Q112 60 106 59 Q114 56 124 55 Q124 54 124 51 Q123 45 123 41 Q126 42 131 43 Q136 45 138 45 Q143 45 145 42 Q147 39 151 33 Q137 30 122 28 Q122 18 122 4 Q129 6 142 8 Q144 8 145 8 Q146 7 147 6 Q154 39 157 65 Q158 68 155 67 ZM83 -1 Q90 1 106 3 Q107 3 108 3 Q108 16 108 26 Q105 26 100 25 Q95 24 93 24 Q86 25 81 34 Q83 34 86 35 Q100 36 106 38 Q105 51 102 58 Q91 55 82 54 L76 61 Q79 26 83 -1 ZM100 155 L95 161 Q91 154 85 146 Q99 142 117 131 Q132 148 144 166 Q132 164 100 155 Z" /><glyph glyph-name="uni591C" unicode="&#x591c;" d="M112 68 Q130 59 146 47 Q164 74 174 106 Q163 106 147 100 Q144 100 140 105 Q136 97 131 91 Q142 89 150 85 Q151 85 151 71 Q151 68 150 67 Q148 66 146 68 Q139 74 128 87 Q119 71 106 72 Q101 72 93 77 Q122 94 133 126 Q139 138 139 147 Q146 141 159 137 Q152 128 143 112 Q165 114 175 121 Q184 113 202 108 Q191 103 183 84 Q173 60 160 38 Q183 22 199 17 Q228 10 247 -1 Q251 -4 251 -6 Q250 -9 245 -9 Q218 -12 202 -11 Q190 -11 182 -4 Q178 0 160 15 Q154 21 151 24 Q136 6 120 -4 Q99 -13 85 2 Q117 12 137 36 Q121 51 104 60 Q100 62 103 66 Q108 70 112 68 ZM78 140 Q90 131 103 126 Q94 118 88 109 Q80 94 71 80 Q72 80 73 79 Q78 78 84 78 Q81 67 80 50 Q79 33 79 15 Q79 -27 76 -29 Q63 -23 55 -12 Q60 -4 60 4 Q65 25 65 55 Q65 65 64 70 Q53 57 44 49 Q24 34 6 47 Q45 65 70 112 Q78 126 78 140 ZM195 174 Q200 176 204 171 Q205 170 208 166 Q210 163 211 161 Q215 155 208 154 Q134 154 58 136 Q52 138 41 145 Q38 147 39 149 Q39 151 43 151 Q46 151 55 153 Q88 157 111 161 Q158 170 195 174 ZM110 205 Q130 200 139 196 Q142 191 139 175 Q138 167 132 171 Q117 184 105 199 Q103 202 104 204 Q105 205 110 205 Z" /><glyph glyph-name="uni591F" unicode="&#x591f;" d="M60 203 Q72 196 85 194 Q78 186 72 171 Q66 156 59 142 Q86 144 101 156 Q113 143 131 141 Q121 123 119 82 Q111 -8 107 -2 Q94 1 64 26 Q60 29 61 30 Q62 32 68 31 Q80 30 89 31 Q95 32 95 39 Q99 62 105 130 Q106 137 100 136 Q86 134 68 129 Q63 128 61 127 Q58 130 55 134 Q54 132 52 130 Q50 125 44 118 Q32 103 10 109 Q44 134 57 176 Q61 191 60 203 ZM206 104 Q202 102 194 94 Q192 91 190 89 Q210 89 220 99 Q229 89 247 83 Q236 77 217 48 Q184 -4 148 -20 Q124 -31 109 -15 Q180 2 217 83 Q213 82 202 80 Q196 78 194 78 Q192 79 186 85 Q176 71 163 59 Q173 57 184 51 Q185 52 185 49 Q184 40 182 35 Q180 32 178 34 Q170 41 159 56 Q158 54 156 54 Q140 44 124 54 Q172 78 186 118 Q198 105 206 104 ZM194 197 Q188 194 179 179 Q177 176 176 175 Q199 176 208 184 Q218 174 229 169 Q221 167 204 144 Q181 114 163 102 Q148 93 127 104 Q177 119 202 169 Q201 169 196 168 Q186 165 181 164 Q179 164 173 170 Q167 161 158 153 Q162 152 167 149 Q171 147 172 147 Q172 147 173 146 Q174 146 174 145 Q174 140 170 132 Q169 130 169 130 Q168 130 167 131 Q162 135 153 148 Q140 141 126 149 Q167 171 174 210 Q188 199 194 197 ZM84 58 Q72 57 42 52 Q42 51 42 50 Q45 38 43 39 Q42 40 39 41 Q29 47 28 49 Q25 84 15 99 Q18 98 26 97 Q32 96 34 96 Q52 98 64 107 Q75 98 93 94 Q83 88 74 68 Q79 65 84 58 ZM36 87 Q36 86 37 83 Q39 69 40 61 L62 66 L65 90 Q66 92 65 93 Q64 94 62 93 Q56 92 48 90 Q41 88 36 87 Z" /><glyph glyph-name="uni5927" unicode="&#x5927;" d="M96 199 Q114 194 129 194 Q122 180 121 152 Q121 147 120 137 Q120 126 119 121 Q125 122 139 125 Q169 131 188 134 Q194 136 198 131 Q203 125 205 120 Q207 115 203 114 Q175 114 119 105 Q125 100 138 86 Q145 79 149 75 Q180 41 191 37 Q224 22 245 10 Q253 6 254 1 Q254 -4 244 -4 Q222 -5 195 -2 Q174 1 165 15 Q158 23 146 43 Q141 50 139 54 Q125 79 115 90 Q104 39 77 13 Q64 1 41 1 Q28 1 17 7 Q83 24 97 101 Q78 98 54 87 Q42 97 36 106 Q63 109 100 117 Q104 171 96 199 Z" /><glyph glyph-name="uni5954" unicode="&#x5954;" d="M180 184 Q184 180 186 176 Q189 171 183 170 Q151 170 132 168 Q138 164 152 154 Q170 142 178 136 Q190 127 205 122 Q223 116 241 107 Q244 106 244 103 Q244 101 241 100 Q240 100 238 100 Q224 98 212 98 Q189 97 179 109 Q140 148 119 166 Q115 166 112 165 Q82 113 47 90 Q37 84 28 84 Q20 84 9 90 Q62 113 91 161 Q76 158 66 155 Q61 157 53 165 Q51 166 51 168 Q52 169 54 169 Q75 171 99 175 Q110 198 111 216 Q119 209 136 203 Q127 197 123 187 Q120 182 119 179 Q146 184 172 187 Q178 188 180 184 ZM139 98 Q147 94 164 92 Q161 84 160 69 Q172 71 195 72 Q200 73 202 73 Q208 74 210 70 Q211 69 213 66 Q215 63 216 62 Q218 59 217 57 Q216 56 212 56 Q186 56 160 54 Q160 40 161 14 Q162 0 162 -9 Q161 -28 157 -30 Q149 -26 141 -15 Q145 5 145 53 Q136 52 119 50 Q102 48 93 47 Q88 14 76 -6 Q65 -24 45 -24 Q40 -24 33 -23 Q30 -22 29 -22 Q68 2 76 45 Q64 42 43 39 Q39 38 37 38 Q36 39 34 40 Q28 44 24 49 Q22 50 22 52 Q23 53 25 53 Q37 54 65 57 Q73 58 78 58 Q79 74 76 91 Q91 84 101 82 Q96 74 94 60 Q101 61 117 63 Q136 66 145 67 Q145 84 139 98 ZM108 147 Q119 143 130 143 Q127 134 126 118 Q129 119 136 120 Q144 122 147 123 Q152 123 153 121 Q157 117 160 114 Q161 113 161 111 Q160 110 158 110 Q141 107 126 104 Q126 101 126 95 Q125 86 125 81 Q125 70 122 68 Q111 77 106 85 Q111 89 111 102 Q97 99 89 99 Q82 100 75 108 Q94 111 112 115 Q112 136 108 147 Z" /><glyph glyph-name="uni597D" unicode="&#x597d;" d="M94 130 Q104 126 117 125 Q111 116 110 108 Q104 74 91 48 Q96 45 104 41 Q110 38 122 30 Q122 28 121 25 Q120 12 118 6 Q107 13 83 33 Q70 12 50 2 Q35 -6 15 7 Q52 16 71 43 Q61 52 52 59 Q53 64 55 76 Q56 86 57 91 Q51 89 40 86 Q26 81 20 79 Q18 82 10 91 Q7 95 5 97 Q25 98 58 105 Q61 136 64 163 Q66 184 63 194 Q78 187 93 185 Q85 173 73 107 Q79 109 90 111 Q92 111 93 111 Q94 117 94 130 ZM237 113 Q242 113 243 111 Q249 104 253 98 Q255 94 250 94 Q225 94 188 89 Q191 54 190 27 Q188 -22 183 -19 Q171 -17 140 10 Q136 14 137 15 Q138 16 143 15 Q170 11 170 21 Q174 46 170 87 Q148 83 124 78 Q121 78 116 80 Q114 82 109 89 Q108 90 108 91 Q119 92 143 96 Q160 99 168 100 Q164 120 158 131 Q160 131 164 130 Q168 130 170 129 Q170 129 170 130 L191 166 Q179 163 141 150 Q137 149 136 148 Q125 156 120 163 Q157 164 192 181 Q205 167 224 159 Q204 150 175 129 Q176 129 177 128 Q179 127 182 127 Q182 125 183 122 Q183 118 186 104 Q195 105 211 108 Q229 112 237 113 ZM62 62 Q64 61 68 59 Q74 56 78 55 Q88 75 92 101 Q80 99 71 95 Q70 91 68 82 Q64 69 62 62 Z" /><glyph glyph-name="uni5982" unicode="&#x5982;" d="M111 140 Q123 134 136 133 Q132 128 128 108 Q121 71 109 48 Q114 45 124 40 Q134 34 139 31 Q139 28 138 18 Q137 8 136 4 Q117 18 100 32 Q85 11 64 -1 Q41 -12 23 3 Q64 16 85 43 Q80 47 71 54 Q61 62 58 65 Q61 80 64 95 Q37 89 20 81 Q14 93 6 103 Q27 103 67 110 Q67 113 68 119 Q72 139 75 164 Q77 187 74 197 Q89 189 104 187 Q98 177 94 161 Q88 137 81 112 Q100 114 112 117 Q113 123 111 140 ZM207 128 Q221 116 246 107 Q230 96 219 63 Q221 61 224 57 Q228 53 229 51 Q199 49 165 45 Q165 28 164 28 Q159 29 150 41 Q149 94 137 120 Q145 119 159 114 Q197 120 207 128 ZM161 102 Q163 71 164 58 Q175 60 194 63 Q201 64 204 64 Q205 74 207 90 Q209 105 209 110 Q203 109 191 107 Q172 104 161 102 ZM70 70 Q71 69 74 68 Q87 60 94 56 Q108 79 111 107 Q102 105 78 99 Q73 84 70 70 Z" /><glyph glyph-name="uni59CB" unicode="&#x59cb;" d="M94 132 Q105 127 119 125 Q113 117 112 109 Q107 70 95 45 Q108 38 100 42 Q108 38 117 33 Q115 18 112 8 Q100 17 86 28 Q73 7 52 -3 Q29 -13 12 3 Q52 9 73 38 Q59 50 50 58 Q52 73 55 87 Q35 81 21 76 Q14 87 8 95 Q18 95 43 98 Q53 99 58 100 Q59 110 62 129 Q66 152 67 163 Q67 165 68 170 Q70 188 68 195 Q69 194 73 193 Q88 186 96 185 Q89 173 79 132 Q75 114 72 103 Q77 104 86 105 Q93 107 96 107 Q96 108 97 108 Q97 109 97 109 Q97 124 94 132 ZM204 67 Q218 55 240 52 Q224 37 215 15 Q222 10 228 2 Q204 2 158 -3 Q155 -3 154 -3 Q155 -12 153 -15 Q150 -16 138 -5 Q136 45 124 59 Q140 57 147 54 Q187 57 204 67 ZM166 194 Q180 182 199 177 Q192 172 178 149 Q159 119 143 102 Q171 107 207 114 Q204 119 201 124 Q199 129 196 133 Q195 136 196 137 Q197 137 200 135 Q208 130 225 118 Q229 115 231 114 Q234 112 234 107 Q235 98 232 88 Q230 83 228 83 Q226 82 223 87 Q217 98 211 105 Q152 90 130 78 Q126 90 118 98 Q131 104 140 116 Q165 152 166 194 ZM150 42 Q152 27 153 8 Q183 13 201 15 Q202 20 203 31 Q205 45 206 50 Q198 49 180 46 Q159 44 150 42 ZM60 61 Q64 60 75 54 Q79 52 81 51 Q93 72 95 98 Q94 98 91 97 Q77 93 69 91 Q68 88 66 81 Q62 69 60 61 Z" /><glyph glyph-name="uni5B66" unicode="&#x5b66;" d="M223 69 Q225 67 228 63 Q230 60 231 59 Q234 53 228 53 Q205 54 148 48 Q150 20 150 4 Q149 -30 143 -31 Q128 -27 104 -7 Q100 -3 101 -2 Q102 -1 107 -2 Q132 -6 130 3 Q132 24 130 46 Q88 39 51 31 Q50 32 47 35 Q42 40 38 44 Q36 46 37 47 Q37 48 39 47 Q71 50 128 60 Q125 72 121 79 Q126 79 130 79 L156 105 Q139 101 106 92 Q95 89 90 88 Q85 89 76 101 Q128 106 158 121 Q170 108 190 99 Q157 88 137 78 L144 78 Q146 72 146 62 Q149 63 156 64 Q197 70 213 72 Q222 73 223 69 ZM54 88 Q43 94 34 97 Q32 98 31 99 Q31 101 33 102 Q45 123 54 148 Q55 150 56 149 Q57 149 57 147 Q57 145 57 141 Q58 136 58 133 Q117 141 152 148 Q167 181 165 208 Q179 197 197 196 Q190 190 176 169 Q167 156 162 150 Q199 159 205 164 Q221 149 239 140 Q215 124 194 115 Q190 114 188 115 Q187 117 189 120 Q198 133 200 145 Q189 143 145 135 Q86 125 65 121 L58 129 Q58 109 54 88 ZM70 186 Q90 175 101 165 Q103 164 99 153 Q98 150 98 149 Q96 144 95 144 Q94 143 92 146 Q73 172 68 185 Q67 189 70 186 ZM109 202 Q136 185 137 182 Q136 170 133 164 Q131 161 130 160 Q129 160 127 162 Q119 173 109 193 Q107 198 106 200 Q105 202 106 202 Q107 203 109 202 Z" /><glyph glyph-name="uni5B9A" unicode="&#x5b9a;" d="M154 130 Q160 124 162 121 Q163 120 163 119 Q163 118 160 117 Q139 113 122 108 Q124 108 128 107 Q132 106 133 106 Q131 99 131 79 Q141 80 163 85 Q172 87 175 88 Q179 87 186 73 Q176 72 144 68 Q135 66 131 66 Q131 61 131 49 Q130 38 130 32 Q158 19 183 17 Q214 14 247 7 Q253 5 254 1 Q254 -2 248 -4 Q210 -13 186 -13 Q175 -13 161 -6 Q147 1 135 10 Q107 28 78 41 Q71 28 61 18 Q52 10 40 10 Q31 10 20 15 Q60 30 72 67 Q77 81 74 92 Q86 88 100 83 Q93 76 89 65 Q88 63 88 62 Q87 60 86 57 Q84 53 83 51 Q96 47 114 39 Q116 64 114 87 Q114 98 112 106 Q94 101 88 101 Q81 104 74 113 Q94 116 127 126 Q140 130 146 131 Q151 133 154 130 ZM72 138 L62 151 Q184 171 179 179 Q194 167 212 157 Q198 145 173 133 Q169 131 167 133 Q166 134 167 138 Q172 148 176 160 Q128 152 72 138 ZM56 112 Q48 116 36 120 Q32 120 35 126 Q35 127 36 128 Q49 149 55 163 Q56 165 58 165 Q59 165 60 163 Q61 137 56 112 ZM98 198 Q120 198 131 194 Q134 189 133 176 Q133 170 131 169 Q130 168 125 170 Q113 176 95 193 Q93 196 93 197 Q94 198 98 198 Z" /><glyph glyph-name="uni5BA2" unicode="&#x5ba2;" d="M97 153 Q106 143 119 139 Q109 133 102 123 Q127 125 142 136 Q160 122 171 118 Q159 114 147 100 Q141 92 133 86 Q136 84 143 81 Q182 62 197 59 Q223 52 245 41 Q251 38 250 35 Q250 32 243 31 Q200 28 189 34 Q173 41 135 67 Q126 73 122 76 Q101 57 76 40 Q78 40 83 38 Q85 37 87 37 Q124 41 146 49 Q158 38 183 31 Q168 21 158 1 Q164 -5 167 -10 Q145 -11 92 -17 Q94 -28 91 -28 Q81 -23 76 -18 Q78 12 68 36 Q54 28 44 23 Q21 12 4 30 Q62 43 108 84 Q102 87 90 93 Q85 96 82 97 Q78 91 72 87 Q55 73 38 85 Q82 107 97 153 ZM50 119 Q40 125 29 127 Q26 128 28 131 Q41 144 55 170 Q56 172 58 172 Q59 172 59 169 Q59 166 59 161 Q130 169 169 178 Q180 180 186 185 Q199 172 220 162 Q196 146 177 141 Q174 140 173 141 Q172 141 173 143 Q176 148 180 157 Q182 163 184 166 Q162 164 85 152 Q71 150 64 149 L58 155 Q56 137 50 119 ZM148 33 Q139 34 89 26 L91 -4 Q103 -3 99 -3 Q132 0 144 2 Q144 3 145 6 Q151 33 148 33 ZM106 111 L99 118 Q98 116 94 112 Q91 107 89 105 Q102 101 118 93 Q128 102 142 120 Q132 119 106 111 ZM107 205 Q120 204 135 197 Q136 196 136 185 Q136 181 136 179 Q136 176 134 175 Q132 174 130 176 Q116 185 104 199 Q101 203 102 205 Q102 206 107 205 Z" /><glyph glyph-name="uni5BB9" unicode="&#x5bb9;" d="M152 54 Q164 40 191 31 Q174 21 165 3 Q174 -6 177 -12 Q129 -12 99 -16 Q99 -28 98 -27 Q90 -24 84 -18 Q84 -16 83 -11 Q79 23 73 34 Q64 27 55 22 Q32 9 12 24 Q69 43 102 90 Q114 108 115 121 Q122 112 137 106 Q131 102 127 97 Q135 93 150 83 Q181 63 194 61 Q224 53 243 44 Q253 40 253 37 Q253 34 243 33 Q230 31 205 33 Q191 34 180 43 Q174 48 161 58 Q135 80 121 89 Q121 88 120 87 Q118 84 117 82 Q102 59 80 41 Q82 40 85 40 Q88 39 90 39 Q91 39 92 39 Q116 41 130 45 Q144 48 152 54 ZM56 113 Q52 115 42 119 Q36 122 34 123 Q31 124 31 125 Q31 126 33 128 Q47 145 61 168 Q62 169 63 169 Q64 169 64 167 Q64 163 63 158 Q185 172 191 180 Q206 164 228 156 Q218 150 197 141 Q188 137 184 135 Q180 133 179 133 Q178 134 179 138 Q181 143 185 153 Q188 161 189 164 Q116 154 68 147 L63 153 Q63 150 62 145 Q59 122 56 113 ZM93 28 Q95 20 96 4 Q97 -1 97 -4 Q100 -4 106 -3 Q141 1 148 3 Q158 34 154 35 Q145 36 93 28 ZM107 129 Q104 127 98 119 Q96 116 95 115 Q83 95 69 86 Q57 77 38 88 Q65 98 78 118 Q86 129 87 142 Q95 133 107 129 ZM140 138 Q169 131 181 125 Q184 122 183 103 Q182 98 181 97 Q179 96 175 99 Q157 112 138 134 Q136 136 136 138 Q137 139 140 138 ZM107 206 Q126 203 137 198 Q140 197 140 179 Q139 173 137 172 Q136 171 131 175 Q118 185 105 201 Q102 205 102 206 Q103 207 107 206 Z" /><glyph glyph-name="uni5C16" unicode="&#x5c16;" d="M110 106 Q119 101 134 99 Q129 93 126 82 Q159 87 194 90 Q199 91 202 87 Q203 86 204 84 Q209 77 210 76 Q212 72 212 71 Q211 69 207 70 Q168 73 123 68 Q128 64 138 54 Q180 16 196 11 Q214 5 238 -9 Q244 -13 243 -15 Q243 -18 236 -18 Q220 -19 192 -17 Q177 -14 170 -4 Q159 9 136 36 Q125 49 119 56 Q100 3 63 -13 Q40 -20 27 -5 Q83 8 106 66 Q74 61 58 57 Q54 56 40 66 Q39 67 39 67 Q36 70 37 71 Q37 72 41 72 Q57 73 97 77 Q105 78 110 79 Q113 96 110 106 ZM108 202 Q125 196 136 197 Q131 182 131 167 L131 121 Q130 106 127 104 Q117 110 110 122 Q116 132 115 167 Q115 187 108 202 ZM164 164 Q191 159 208 152 Q210 152 210 132 Q209 125 208 124 Q206 123 201 126 Q175 144 160 159 Q157 163 158 164 Q159 165 164 164 ZM78 160 Q71 131 65 112 Q61 109 45 113 Q40 114 39 116 Q38 117 41 122 Q61 146 73 161 Q76 165 77 164 Q78 164 78 160 Z" /><glyph glyph-name="uni5C1D" unicode="&#x5c1d;" d="M148 33 Q179 17 190 7 Q194 2 191 -18 Q189 -24 188 -24 Q186 -24 182 -20 Q168 -6 161 3 Q105 -8 59 -26 Q59 -13 55 -1 Q85 7 104 45 Q71 40 46 34 Q37 39 32 47 Q31 48 31 49 Q31 50 33 50 Q66 53 103 59 Q155 67 197 72 Q206 74 209 68 Q210 67 211 65 Q214 60 215 59 Q217 56 216 54 Q215 52 210 52 Q160 52 111 46 Q125 39 134 37 Q123 32 114 23 Q103 13 91 4 Q100 5 118 8 Q143 12 154 13 Q151 16 147 23 Q144 27 143 28 Q141 32 142 34 Q144 35 148 33 ZM45 78 Q41 80 32 83 Q26 85 23 86 Q19 88 22 91 Q41 112 52 134 Q54 136 55 136 Q56 136 56 133 Q56 131 56 124 Q71 126 117 132 Q118 186 109 209 Q126 203 140 202 Q133 185 133 134 Q146 136 166 140 Q174 141 177 142 Q193 144 201 150 Q211 140 243 124 Q221 113 191 104 Q187 103 187 105 Q186 106 188 109 Q189 111 191 115 Q194 121 199 132 Q139 125 62 112 L55 120 Q53 101 45 78 ZM161 101 Q163 100 166 96 Q167 94 168 93 Q170 90 166 89 Q116 82 87 78 Q80 79 73 89 Q101 92 125 98 Q132 99 147 102 Q152 103 154 103 Q158 104 161 101 ZM145 145 L141 150 Q174 174 178 195 Q186 184 199 174 Q191 172 180 164 Q167 155 145 145 ZM68 176 Q95 168 99 163 Q100 156 96 143 Q95 139 93 139 Q92 139 90 141 Q79 151 65 173 Q64 175 65 176 Q65 177 68 176 Z" /><glyph glyph-name="uni5C71" unicode="&#x5c71;" d="M190 116 Q205 108 223 108 Q217 98 217 50 Q217 17 216 -3 Q215 -7 214 -8 Q213 -9 209 -6 Q199 1 190 10 Q194 19 194 33 Q78 15 46 -3 Q45 6 33 20 Q43 26 44 53 Q45 81 37 98 Q53 91 70 90 Q66 84 63 57 Q61 36 59 28 Q70 29 102 34 Q113 36 118 37 Q118 44 118 59 Q119 89 118 108 Q119 171 109 185 Q133 179 145 179 Q141 164 139 136 Q138 111 138 39 Q173 45 195 47 Q197 62 195 80 Q195 105 190 116 Z" /><glyph glyph-name="uni5DE5" unicode="&#x5de5;" d="M219 49 Q224 50 227 45 Q235 36 239 28 Q241 25 240 23 Q240 21 236 22 Q207 28 153 25 Q97 22 43 13 Q39 11 36 14 Q28 21 22 28 Q36 27 93 35 Q112 37 120 38 Q121 59 121 90 Q120 128 115 140 Q94 137 79 133 Q68 136 61 145 Q90 149 149 160 Q169 164 178 166 Q184 166 184 164 Q186 162 191 157 Q193 154 194 153 Q195 151 195 150 Q194 149 192 149 Q174 148 135 143 Q125 142 121 141 Q135 137 145 137 Q139 122 138 98 Q138 67 138 41 Q183 47 219 49 Z" /><glyph glyph-name="uni5E38" unicode="&#x5e38;" d="M63 67 Q64 67 67 66 Q79 65 82 63 Q84 63 87 64 Q96 64 114 67 Q114 77 110 89 Q108 89 105 88 Q102 88 100 87 Q103 78 100 77 Q94 78 86 84 Q83 108 71 125 Q74 125 81 125 Q88 124 90 124 Q136 130 147 140 Q159 130 180 128 Q166 119 158 104 Q164 100 166 95 Q148 94 120 90 Q130 88 134 88 Q131 79 130 69 Q132 69 135 70 Q156 74 163 78 Q175 68 193 65 Q188 57 186 47 Q186 43 185 35 Q185 27 184 23 Q182 -2 179 -3 Q163 0 143 19 Q140 22 141 23 Q142 25 145 25 Q153 24 157 24 Q165 23 165 29 Q167 44 167 62 Q167 64 165 64 Q159 63 145 61 Q135 60 130 59 Q130 47 130 26 Q131 3 131 -14 Q131 -34 126 -35 Q116 -29 110 -18 Q117 6 115 56 Q104 55 91 52 Q90 52 86 54 Q85 55 84 56 Q84 31 84 20 Q84 -5 81 -4 Q67 4 64 13 Q68 20 68 36 Q68 56 63 67 ZM44 98 Q33 103 22 106 Q17 108 21 112 Q38 130 50 154 Q54 157 55 153 Q55 150 54 145 Q59 146 70 147 Q98 151 114 153 Q114 165 114 176 Q114 199 107 214 Q124 206 138 206 Q134 199 133 190 Q132 184 131 155 Q137 156 148 157 Q166 160 176 162 Q193 166 199 171 Q210 160 242 145 Q223 134 190 125 Q186 124 185 126 Q184 127 186 130 Q187 132 189 136 Q192 142 197 153 Q137 146 59 133 Q57 135 54 138 Q51 118 44 98 ZM142 123 Q114 117 93 114 Q96 105 98 96 Q113 99 142 104 Q143 114 146 120 Q146 123 142 123 ZM142 163 L138 168 Q167 190 170 207 Q178 196 191 186 Q184 184 172 178 Q162 171 142 163 ZM68 189 Q89 182 93 178 Q96 173 92 159 Q91 155 89 155 Q88 155 85 157 Q74 170 65 185 Q64 187 65 188 Q66 190 68 189 Z" /><glyph glyph-name="uni5E73" unicode="&#x5e73;" d="M139 168 Q134 146 134 127 Q134 109 135 94 Q177 102 218 106 Q226 106 230 102 Q231 101 234 97 Q236 93 237 91 Q239 87 238 86 Q237 85 233 85 Q205 85 135 79 Q135 72 135 57 Q136 39 136 28 Q136 21 136 3 Q138 -32 136 -31 Q122 -26 110 -11 Q116 2 117 37 Q117 43 117 56 Q118 70 118 77 Q73 71 36 64 Q34 64 19 76 Q18 77 18 79 Q19 80 21 80 Q40 82 92 89 Q109 91 118 92 Q118 116 117 138 Q115 161 111 171 Q107 170 99 169 Q93 169 81 166 Q77 165 72 167 Q66 172 61 178 Q81 180 118 187 Q150 193 169 196 Q174 197 177 194 Q177 194 178 193 Q184 185 186 180 Q148 178 118 172 Q123 170 137 168 Q138 168 139 168 ZM152 112 L147 116 Q173 146 175 165 Q186 154 202 145 Q194 143 180 132 Q165 120 152 112 ZM66 145 Q83 138 94 129 Q95 124 90 113 Q88 107 86 107 Q84 106 81 110 Q75 118 66 138 Q64 141 63 143 Q62 145 62 145 Q63 146 66 145 Z" /><glyph glyph-name="uni5E74" unicode="&#x5e74;" d="M121 197 Q115 194 109 181 Q107 178 104 173 Q100 166 98 163 Q113 165 146 173 Q170 178 180 180 Q183 181 185 179 Q185 180 186 179 Q191 174 194 169 Q196 166 192 165 Q183 164 164 161 Q138 156 127 155 Q139 151 148 151 Q145 140 144 126 Q164 131 182 134 Q186 135 189 132 Q195 127 198 124 Q201 121 197 119 Q182 118 158 114 Q149 113 144 112 Q143 108 144 105 L144 78 Q162 81 196 86 Q215 89 223 90 Q230 91 234 86 Q241 78 244 71 Q246 68 245 67 Q244 65 238 66 Q206 69 144 63 Q144 43 144 22 Q144 15 144 -2 Q146 -36 144 -35 Q137 -33 120 -17 Q125 -7 126 30 Q127 46 127 61 Q67 55 28 45 Q22 52 14 61 Q13 63 14 64 Q14 64 16 64 Q27 63 65 68 Q74 69 78 69 Q74 106 65 120 Q66 120 67 120 Q80 118 86 116 Q89 116 95 117 Q105 119 126 123 Q125 143 120 154 Q111 152 102 152 Q99 152 93 155 Q87 147 75 133 Q74 131 74 131 Q59 118 41 129 Q75 148 93 187 Q98 197 99 211 Q106 201 121 197 ZM90 105 L93 71 Q99 72 110 74 Q122 75 127 76 Q127 93 127 110 Q117 109 95 106 Q109 108 90 105 Z" /><glyph glyph-name="uni5EFA" unicode="&#x5efa;" d="M105 38 Q102 39 91 48 Q92 48 94 49 Q125 53 145 57 Q145 64 145 73 Q142 72 137 71 Q130 70 119 68 Q113 71 107 78 Q125 80 145 85 L145 101 Q137 99 124 96 Q117 94 115 94 Q113 95 104 104 Q109 105 126 108 Q139 111 145 112 L145 127 Q134 124 115 120 Q98 116 92 115 Q82 120 78 126 Q102 129 145 139 Q145 147 145 155 Q142 154 135 152 Q121 148 115 146 Q106 154 103 159 Q118 160 145 166 Q145 168 145 169 Q145 201 138 213 Q152 206 167 206 Q161 190 161 171 Q172 174 178 178 Q191 167 209 164 Q205 158 200 151 Q202 151 206 152 Q214 154 224 156 Q229 156 230 154 Q237 147 240 142 Q215 140 193 136 Q190 127 187 118 Q194 111 195 108 Q178 106 160 103 L160 88 Q164 89 172 90 Q182 92 186 93 Q193 89 198 80 Q187 80 159 76 Q159 67 159 59 Q180 63 210 68 Q216 63 222 54 Q207 53 159 47 Q159 40 159 35 Q159 23 156 12 Q167 9 180 7 Q212 1 247 -11 Q254 -13 253 -16 Q252 -19 245 -20 Q212 -25 176 -22 Q163 -21 149 -12 Q112 11 70 32 Q59 8 44 -7 Q27 -24 6 -9 Q38 2 57 38 Q45 44 30 49 Q29 50 28 50 Q25 49 28 59 Q29 62 33 61 Q44 56 62 50 Q68 65 71 82 Q55 81 40 71 Q40 81 37 88 Q53 97 65 141 Q56 138 43 131 Q40 130 39 129 Q30 132 23 140 Q52 142 64 155 Q74 147 92 143 Q79 134 53 88 Q64 90 73 94 Q83 87 95 84 Q87 76 82 62 Q80 58 77 50 Q76 46 75 44 Q95 37 118 26 Q137 17 148 14 Q145 22 145 34 Q145 39 145 45 Q138 44 124 41 Q110 39 105 38 ZM178 163 Q175 163 166 161 Q162 160 160 159 Q160 151 160 142 Q165 144 177 146 Q178 146 179 146 Q179 149 180 154 Q180 158 180 160 Q180 163 180 163 Q179 164 178 163 ZM176 118 Q176 121 177 126 Q177 131 177 133 Q174 133 169 132 Q163 131 160 130 Q160 123 160 115 Q167 117 176 118 Z" /><glyph glyph-name="uni5F00" unicode="&#x5f00;" d="M165 158 Q159 137 159 114 Q169 115 190 118 Q217 122 229 123 Q235 123 238 119 Q244 112 246 107 Q248 103 248 102 Q247 100 243 100 Q204 101 159 97 Q159 86 160 62 Q160 38 161 28 Q163 -17 161 -31 Q155 -30 136 -12 Q142 1 142 36 Q143 61 143 95 Q123 93 105 90 Q99 48 84 21 Q65 -19 29 -5 Q76 21 87 88 Q72 85 46 79 Q38 78 35 77 Q30 76 14 89 Q11 92 11 93 Q12 94 16 94 Q47 96 89 103 Q89 111 90 115 Q90 139 86 152 Q78 151 76 151 Q68 152 56 163 Q78 165 140 179 Q167 185 177 187 Q181 188 184 185 Q189 180 193 174 Q196 170 191 169 Q178 168 144 162 Q155 159 165 158 ZM106 105 Q124 108 143 111 L143 114 Q143 143 136 161 Q123 158 101 155 Q94 154 91 153 Q103 150 113 150 Q109 140 107 117 Q107 115 107 111 Q106 107 106 105 Z" /><glyph glyph-name="uni5F71" unicode="&#x5f71;" d="M144 128 Q147 130 151 125 Q154 122 156 119 Q157 117 157 116 Q156 115 154 115 Q82 111 22 94 Q19 94 14 98 Q11 100 7 105 Q6 106 5 107 Q26 109 93 121 Q88 127 82 137 Q81 138 81 139 L76 138 Q77 132 74 131 Q64 136 62 140 Q59 171 47 192 Q60 191 66 190 Q106 194 117 202 Q130 191 148 188 Q137 178 129 148 Q124 133 122 133 Q120 134 113 143 Q110 143 104 142 Q91 141 86 140 Q88 139 92 137 Q100 135 102 132 Q102 131 101 127 Q100 124 100 122 Q124 127 144 128 ZM108 55 Q104 49 104 38 Q105 25 105 9 Q106 -12 103 -15 Q86 -11 70 3 Q68 6 69 7 Q69 8 72 7 Q87 6 90 9 Q90 9 90 10 Q91 28 90 42 Q90 44 89 47 Q88 54 87 57 Q79 55 74 55 Q75 49 73 49 Q68 52 62 55 Q62 74 51 93 Q61 94 67 91 Q106 96 118 104 Q131 96 144 94 Q136 89 127 73 Q129 71 132 66 Q133 64 134 63 Q132 63 128 62 Q101 60 87 57 Q97 54 108 55 ZM215 82 Q224 70 237 65 Q231 62 222 52 Q221 51 220 50 Q184 2 145 -24 Q125 -38 104 -20 Q163 -1 205 56 Q215 69 215 82 ZM211 138 Q217 127 230 122 Q220 118 214 107 Q195 82 175 66 Q158 57 143 69 Q173 80 202 116 Q211 127 211 138 ZM205 202 Q211 195 227 189 Q218 184 211 172 Q200 151 182 132 Q166 119 149 131 Q179 144 200 182 Q206 193 205 202 ZM67 181 L70 167 Q74 168 83 171 Q95 174 101 175 Q102 175 109 166 Q105 165 95 163 Q79 161 72 159 L74 146 Q78 147 87 149 Q104 152 111 153 Q112 153 112 151 Q117 173 119 185 Q120 188 119 189 Q118 190 116 189 Q77 182 67 181 ZM115 91 Q112 90 103 89 Q75 83 70 82 L72 63 L113 71 L117 88 Q118 90 118 91 Q117 91 115 91 ZM118 45 Q124 44 138 40 Q143 39 146 38 Q149 33 149 23 Q149 17 148 16 Q147 15 142 17 Q140 19 136 22 Q123 31 116 39 Q113 43 114 44 Q114 46 118 45 ZM25 8 Q55 22 58 47 Q66 38 77 35 Q69 30 65 23 Q60 16 54 8 Q41 -5 25 8 Z" /></font>
</defs>
</svg>
